<svg width="9" height="12" viewBox="0 0 9 12" fill="none" xmlns="http://www.w3.org/2000/svg">
<path d="M1.05089 4.85868L1.05087 4.85866C0.933982 4.7437 0.875 4.59225 0.875 4.44075C0.875 4.28924 0.933992 4.13783 1.05086 4.02285L1.05089 4.02282L4.07793 1.04706C4.31129 0.817647 4.68872 0.817647 4.92209 1.04706L7.94912 4.02289C8.18363 4.25344 8.18363 4.62821 7.94912 4.85875C7.71575 5.08817 7.33832 5.08817 7.10496 4.85875L5.09798 2.88572V10.535C5.09798 10.8628 4.82822 11.125 4.5 11.125C4.17184 11.125 3.90203 10.8628 3.90203 10.535L3.90203 2.88572L1.89505 4.85868C1.66169 5.08809 1.28426 5.08809 1.05089 4.85868Z" stroke-width="0.25"/>
</svg>
