<svg width="16" height="16" viewBox="0 0 16 16" fill="none" xmlns="http://www.w3.org/2000/svg">
<path fill-rule="evenodd" clip-rule="evenodd" d="M5.41406 8L8.00006 10.586L10.5861 8H10.0001C9.44806 8 9.00006 7.552 9.00006 7V2H7.00006V7C7.00006 7.552 6.55206 8 6.00006 8H5.41406ZM8.00019 13C7.74419 13 7.48819 12.902 7.29319 12.707L2.29319 7.707C2.00719 7.421 1.92119 6.991 2.07619 6.617C2.23119 6.244 2.59619 6 3.00019 6H5.00019V1C5.00019 0.448 5.44819 0 6.00019 0H10.0002C10.5522 0 11.0002 0.448 11.0002 1V6H13.0002C13.4042 6 13.7692 6.244 13.9242 6.617C14.0792 6.991 13.9932 7.421 13.7072 7.707L8.70719 12.707C8.51219 12.902 8.25619 13 8.00019 13Z" fill="#434244"/>
<path fill-rule="evenodd" clip-rule="evenodd" d="M15 16H1C0.448 16 0 15.552 0 15V12C0 11.448 0.448 11 1 11C1.552 11 2 11.448 2 12V14H14V12C14 11.448 14.448 11 15 11C15.552 11 16 11.448 16 12V15C16 15.552 15.552 16 15 16Z" fill="#434244"/>
</svg>
