<svg width="16" height="15" fill="#393B48" viewBox="0 0 16 15" version="1.1" xmlns="http://www.w3.org/2000/svg" xmlns:xlink="http://www.w3.org/1999/xlink">
    <g id="calendar-iconCanvas">
        <g id="calendar-iconPage 1.3">
            <g id="calendar-iconFill 1">
                <path fill-rule="evenodd" clip-rule="evenodd" d="M 1 0C 1.553 0 2 0.447 2 1C 2 1.553 1.553 2 1 2C 0.447 2 0 1.553 0 1C 0 0.447 0.447 0 1 0Z" transform="translate(4 6)" />
            </g>
            <g id="calendar-iconFill 3">
                <path fill-rule="evenodd" clip-rule="evenodd" d="M 1 0C 0.447 0 0 0.447 0 1C 0 1.553 0.447 2 1 2C 1.553 2 2 1.553 2 1C 2 0.447 1.553 0 1 0Z" transform="translate(7 6)" />
            </g>
            <g id="calendar-iconFill 5">
                <path fill-rule="evenodd" clip-rule="evenodd" d="M 0 1C 0 1.553 0.447 2 1 2C 1.553 2 2 1.553 2 1C 2 0.447 1.553 0 1 0C 0.447 0 0 0.447 0 1Z" transform="translate(10 6)" />
            </g>
            <g id="calendar-iconFill 7">
                <path fill-rule="evenodd" clip-rule="evenodd" d="M 1 0C 0.447 0 0 0.447 0 1C 0 1.553 0.447 2 1 2C 1.553 2 2 1.553 2 1C 2 0.447 1.553 0 1 0Z" transform="translate(4 9)" />
            </g>
            <g id="calendar-iconFill 9">
                <path fill-rule="evenodd" clip-rule="evenodd" d="M 1 0C 0.447 0 0 0.447 0 1C 0 1.553 0.447 2 1 2C 1.553 2 2 1.553 2 1C 2 0.447 1.553 0 1 0Z" transform="translate(7 9)" />
            </g>
            <g id="calendar-iconFill 11">
                <path fill-rule="evenodd" clip-rule="evenodd" d="M 1 0C 0.447 0 0 0.447 0 1C 0 1.553 0.447 2 1 2C 1.553 2 2 1.553 2 1C 2 0.447 1.553 0 1 0Z" transform="translate(10 9)"/>
            </g>
            <mask id="calendar-iconmask0" maskUnits="userSpaceOnUse" x="0" y="0" width="16" height="15">
                <g id="calendar-iconClip 14">
                    <path fill-rule="evenodd" clip-rule="evenodd" d="M 0 15L 16 15L 16 0L 0 0L 0 15Z" fill="white"/>
                </g>
            </mask>
            <g mask="url(#calendar-iconmask0)">
                <g id="calendar-iconFill 13">
                    <path fill-rule="evenodd" clip-rule="evenodd" d="M 2 13L 14 13L 14 4L 2 4L 2 13ZM 14 2L 13 2L 13 1C 13 0.447 12.553 0 12 0C 11.447 0 11 0.447 11 1L 11 2L 5 2L 5 1C 5 0.447 4.553 0 4 0C 3.447 0 3 0.447 3 1L 3 2L 2 2C 0.896 2 0 2.896 0 4L 0 13C 0 14.104 0.896 15 2 15L 14 15C 15.104 15 16 14.104 16 13L 16 4C 16 2.896 15.104 2 14 2Z" />
                </g>
            </g>
        </g>
    </g>
</svg>

