<svg width="16" height="16" viewBox="0 0 16 16" fill="none" xmlns="http://www.w3.org/2000/svg">
    <path d="M8 2C11.9 2 14 3.5 14 4C14 4.5 11.9 6 8 6C4.1 6 2 4.5 2 4C2 3.5 4.1 2 8 2ZM8 0C3.6 0 0 1.8 0 4C0 6.2 3.6 8 8 8C12.4 8 16 6.2 16 4C16 1.8 12.4 0 8 0Z" fill="#434343"/>
    <path d="M8 12C4 12 0 10.6 0 8C0 7.4 0.4 7 1 7C1.6 7 2 7.4 2 8C2 8.7 4.3 10 8 10C11.7 10 14 8.7 14 8C14 7.4 14.4 7 15 7C15.6 7 16 7.4 16 8C16 10.6 12 12 8 12Z" fill="#434343"/>
    <path d="M8 16C4 16 0 14.6 0 12C0 11.4 0.4 11 1 11C1.6 11 2 11.4 2 12C2 12.7 4.3 14 8 14C11.7 14 14 12.7 14 12C14 11.4 14.4 11 15 11C15.6 11 16 11.4 16 12C16 14.6 12 16 8 16Z" fill="#434343"/>
</svg>
