<svg width="16" height="16" viewBox="0 0 16 16" fill="none" xmlns="http://www.w3.org/2000/svg">
    <path d="M13 15.525H11C9.9 15.525 9 14.625 9 13.525V10.525C9 9.925 8.6 9.525 8 9.525C7.4 9.525 7 9.925 7 10.525V13.525C7 14.625 6.1 15.525 5 15.525H3C1.9 15.525 1 14.625 1 13.525V6.325C1 5.525 1.4 4.725 2 4.225L6.5 0.525C7.4 -0.175 8.7 -0.175 9.6 0.525L14 4.225C14.6 4.725 15 5.525 15 6.325V13.525C15 14.625 14.1 15.525 13 15.525ZM8 7.525C9.7 7.525 11 8.825 11 10.525V13.525H13V6.325C13 6.125 12.9 5.925 12.7 5.725L8.3 2.025C8.1 1.925 7.9 1.925 7.7 2.025L3.3 5.725C3.1 5.925 3 6.125 3 6.325V13.525H5V10.525C5 8.825 6.3 7.525 8 7.525Z" fill="#434244"/>
</svg>
