<svg width="16" height="17" viewBox="0 0 16 17" fill="none" xmlns="http://www.w3.org/2000/svg">
    <path d="M7 10C7 9.4 6.6 9 6 9H3.4L10.7 1.7C11.1 1.3 11.1 0.7 10.7 0.3C10.3 -0.1 9.7 -0.1 9.3 0.3L2 7.6V5C2 4.4 1.6 4 1 4C0.4 4 0 4.4 0 5V11H6C6.6 11 7 10.6 7 10Z" fill="#434343"/>
    <path d="M15.0999 6C14.9999 6 14.8999 6 14.7999 6H9.9999C9.3999 6 8.9999 6.4 8.9999 7C8.9999 7.6 9.3999 8 9.9999 8H12.4999L5.6999 14.8C5.2999 15.2 5.2999 15.8 5.6999 16.2C5.8999 16.4 6.1999 16.5 6.3999 16.5C6.5999 16.5 6.8999 16.4 7.0999 16.2L13.9999 9.4V12C13.9999 12.6 14.3999 13 14.9999 13C15.5999 13 15.9999 12.6 15.9999 12V6H15.0999Z" fill="#434343"/>
</svg>
