<svg width="17" height="16" viewBox="0 0 17 16" fill="none" xmlns="http://www.w3.org/2000/svg">
    <path d="M3.21169 11.9852L3.21186 11.9853C3.27973 12.0322 3.43803 12.1179 3.63649 12.1246C3.84356 12.1316 4.07963 12.0516 4.28539 11.7896L4.28563 11.7897L4.2905 11.7826L6.66446 8.28501L9.15853 10.7106L9.15905 10.7111C9.3203 10.8661 9.54411 10.9518 9.77509 10.925C9.99847 10.9018 10.2025 10.7833 10.3346 10.5969L10.3354 10.5958L14.4479 4.64949L14.5776 6.38312C14.5776 6.38319 14.5776 6.38327 14.5776 6.38335C14.6 6.69358 14.7597 6.88269 14.9404 6.98744C15.1139 7.088 15.3045 7.11035 15.4091 7.10223L15.4095 7.1022C15.834 7.0678 16.1565 6.69711 16.1226 6.26515C16.1226 6.26503 16.1225 6.2649 16.1225 6.26477L15.8488 2.59675C15.8488 2.59659 15.8488 2.59643 15.8488 2.59628C15.8183 2.16897 15.4472 1.84311 15.0172 1.87748C15.0171 1.87748 15.017 1.87749 15.0169 1.8775L11.3792 2.15348C11.3791 2.15349 11.3791 2.15349 11.379 2.1535C10.9528 2.18432 10.6313 2.55964 10.665 2.99049C10.6956 3.41859 11.0641 3.73986 11.4957 3.70932L11.4964 3.70927L13.3041 3.57186L9.5835 8.94855L7.08265 6.51619C7.08255 6.51609 7.08245 6.516 7.08236 6.5159C6.91962 6.35579 6.69185 6.27452 6.4655 6.30123C6.23795 6.32452 6.03325 6.44714 5.90453 6.6379C5.90449 6.63796 5.90445 6.63802 5.90441 6.63807L3.01098 10.9004C3.01097 10.9004 3.01096 10.9004 3.01095 10.9004C2.7684 11.2559 2.85944 11.7408 3.21169 11.9852Z" fill="#434244" stroke="#434244" stroke-width="0.25"/>
    <path fill-rule="evenodd" clip-rule="evenodd" d="M1.96318 13.9998L1.99998 1.00581L2 1C2 0.447708 1.55228 0 1 0C0.447716 0 0 0.447708 0 1V15.3337C0 15.7027 0.291672 15.9998 0.653862 15.9998H14.9815C14.9876 15.9999 14.9938 16 15 16C15.0062 16 15.0124 15.9999 15.0185 15.9998H15.0516C15.0728 15.9998 15.0938 15.9977 15.1145 15.9935C15.6129 15.9367 16 15.5136 16 15C16 14.4877 15.6148 14.0654 15.1182 14.0069C15.0963 14.0023 15.0741 13.9998 15.0516 13.9998H1.96318Z" fill="#434244"/>
</svg>
