<svg width="16" height="16" viewBox="0 0 16 16" fill="none" xmlns="http://www.w3.org/2000/svg">
<rect width="16" height="16" fill="black" fill-opacity="0"/>
<path d="M15.8881 10.2716C15.7806 9.97531 15.5655 9.77778 15.3504 9.38272C14.5977 8.49383 13.6298 7.20988 13.6298 4.93827C13.6298 2.2716 11.1564 -1.47172e-09 8.14538 -1.47172e-09C4.91925 0.0987654 2.44588 2.2716 2.44588 5.03704C2.44588 7.30864 1.3705 8.59259 0.725271 9.48148C0.510195 9.77778 0.29512 10.0741 0.187582 10.3704C-0.135032 10.963 -0.0274939 11.6543 0.402657 12.1481C0.832809 12.642 1.47804 13.037 2.12326 13.037H4.81171C4.81171 14.716 6.2097 16 8.03784 16C9.86599 16 11.264 14.716 11.264 13.037H13.9524C14.5977 13.037 15.2429 12.7407 15.673 12.1481C15.9956 11.5556 16.1032 10.8642 15.8881 10.2716ZM8.03784 13.9259C7.39262 13.9259 6.96247 13.5309 6.96247 12.9383H9.11322C9.11322 13.5309 8.57553 13.9259 8.03784 13.9259ZM2.2308 10.963C2.33834 10.8642 2.44588 10.7654 2.44588 10.6667C3.19864 9.67901 4.59663 8 4.59663 5.03704C4.59663 3.45679 6.10216 2.07407 7.93031 2.07407C9.75845 2.07407 11.264 3.45679 11.264 5.03704C11.264 7.90123 12.662 9.67901 13.4147 10.6667C13.5223 10.7654 13.6298 10.8642 13.6298 10.963H2.2308Z" fill="#434244"/>
</svg>

