<svg width="16" height="16" viewBox="0 0 16 16" fill="none" xmlns="http://www.w3.org/2000/svg">
    <path fill-rule="evenodd" clip-rule="evenodd" d="M2 8.00005C2 6.70605 2.416 5.51005 3.115 4.52905L11.471 12.8851C10.49 13.5841 9.294 14.0001 8 14.0001C4.691 14.0001 2 11.3091 2 8.00005ZM14.0001 8C14.0001 9.294 13.5841 10.49 12.8851 11.471L4.52905 3.115C5.51005 2.416 6.70605 2 8.00005 2C11.3091 2 14.0001 4.691 14.0001 8ZM8 0C3.589 0 0 3.589 0 8C0 12.411 3.589 16 8 16C12.411 16 16 12.411 16 8C16 3.589 12.411 0 8 0Z" fill="#D0021B"/>
</svg>
