<svg width="64" height="64" viewBox="0 0 64 64" fill="none" xmlns="http://www.w3.org/2000/svg">
    <path d="M62.6998 46.9L57.5998 38L60.5998 38.6C61.6998 38.8 62.6998 38.1 62.8998 37C63.0998 35.9 62.3998 34.9 61.2998 34.7L51.4998 32.8L49.2998 43.3C49.0998 44.4 49.7998 45.4 50.7998 45.7C50.8998 45.7 51.0998 45.7 51.1998 45.7C52.0998 45.7 52.9998 45.1 53.1998 44.1L54.0998 39.9L59.1998 48.9C59.4998 49.4 59.6998 50 59.6998 50.6C59.6998 51.2 59.4998 51.7 59.1998 52.2C58.8998 52.7 58.4998 53.1 57.9998 53.4C57.4998 53.7 56.8998 53.9 56.2998 53.9H29.7998C28.6998 53.9 27.7998 54.8 27.7998 55.9C27.7998 57 28.6998 57.9 29.7998 57.9H56.1998C57.4998 57.9 58.8998 57.5 59.9998 56.9C61.0998 56.3 61.9998 55.3 62.5998 54.3C63.1998 53.3 63.5998 52 63.5998 50.7C63.6998 49.4 63.3998 48.1 62.6998 46.9Z" fill="#434244"/>
    <path d="M12.5 47.5C11.7 48.2 11.6 49.5 12.3 50.3L15.5 54H7.4C6.8 54 6.2 53.8 5.7 53.5C5.2 53.2 4.8 52.8 4.5 52.3C4.2 51.8 4 51.2 4 50.6C4 50 4.1 49.4 4.5 48.9L16.7 27.5C17.2 26.5 16.9 25.3 16 24.8C15 24.3 13.8 24.6 13.3 25.5L1 46.9C0.3 48.1 0 49.4 0 50.7C0 51.9 0.4 53.2 1 54.3C1.6 55.4 2.5 56.3 3.6 56.9C4.7 57.6 6 57.9 7.4 57.9H15L12.4 60.5C11.6 61.3 11.6 62.5 12.4 63.3C12.8 63.7 13.3 63.9 13.8 63.9C14.3 63.9 14.8 63.7 15.2 63.3L22.6 56L15.3 47.5C14.6 46.8 13.4 46.7 12.5 47.5Z" fill="#434244"/>
    <path d="M27.5 15L23.1 15.7L28.8 5.7C29.1 5.1 29.5 4.7 30.1 4.4C31.1 3.8 32.4 3.8 33.4 4.4C33.9 4.7 34.4 5.1 34.7 5.7L47 27.1C47.4 27.7 48 28.1 48.7 28.1C49 28.1 49.4 28 49.7 27.8C50.7 27.3 51 26 50.4 25.1L38.3 3.7C37.6 2.5 36.7 1.6 35.5 0.9C33.3 -0.3 30.5 -0.3 28.3 0.9C27.1 1.5 26.2 2.5 25.5 3.7L19.9 13.6L18.9 9.5C18.6 8.4 17.5 7.8 16.5 8C15.4 8.3 14.8 9.3 15 10.4L17.5 20.6L28.2 19C29.3 18.8 30 17.8 29.9 16.7C29.6 15.6 28.6 14.8 27.5 15Z" fill="#434244"/>
</svg>
