<svg width="64" height="65" viewBox="0 0 64 65" fill="none" xmlns="http://www.w3.org/2000/svg">
    <path d="M60.7 19.0122H53.1L41.7 0.912156C41.1 0.0121555 39.9 -0.287845 38.9 0.312156C38 0.912156 37.7 2.11216 38.3 3.11216L48.4 19.0122H15.6L25.7 3.11216C26.3 2.21216 26 0.912156 25.1 0.312156C24.2 -0.287845 22.9 0.0121555 22.3 0.912156L10.9 19.0122H3.3C1.5 19.0122 0 20.5122 0 22.3122V28.6122C0 30.5122 1.5 32.0122 3.3 32.0122H3.7L6.3 55.9122C6.8 60.5122 10.8 64.0122 15.4 64.0122H32H48.5C53.1 64.0122 57 60.5122 57.6 55.9122L60.2 32.0122H60.6C62.4 32.0122 63.9 30.5122 63.9 28.7122V22.4122C64 20.5122 62.5 19.0122 60.7 19.0122ZM4 23.0122H12H52H60V28.0122H4V23.0122ZM53.7 55.5122C53.4 58.1122 51.2 60.0122 48.6 60.0122H32.1H15.5C12.9 60.0122 10.7 58.0122 10.4 55.5122L7.8 32.0122H56.2L53.7 55.5122Z" fill="#434244"/>
    <path d="M32 55.2122C33.1 55.2122 34 54.3122 34 53.2122V39.2122C34 38.1122 33.1 37.2122 32 37.2122C30.9 37.2122 30 38.1122 30 39.2122V53.2122C30 54.3122 30.9 55.2122 32 55.2122Z" fill="#434244"/>
    <path d="M20 55.2122C21.1 55.2122 22 54.3122 22 53.2122V39.2122C22 38.1122 21.1 37.2122 20 37.2122C18.9 37.2122 18 38.1122 18 39.2122V53.2122C18 54.3122 18.9 55.2122 20 55.2122Z" fill="#434244"/>
    <path d="M44 55.2122C45.1 55.2122 46 54.3122 46 53.2122V39.2122C46 38.1122 45.1 37.2122 44 37.2122C42.9 37.2122 42 38.1122 42 39.2122V53.2122C42 54.3122 42.9 55.2122 44 55.2122Z" fill="#434244"/>
</svg>
