<svg width="16" height="17" viewBox="0 0 16 17" fill="#55B5E7" xmlns="http://www.w3.org/2000/svg">
<path fill-rule="evenodd" clip-rule="evenodd" d="M5.41419 5L8.00019 2.414L10.5862 5H10.0002C9.44819 5 9.00019 5.448 9.00019 6V11H7.00019V6C7.00019 5.448 6.55219 5 6.00019 5H5.41419ZM8.00019 0C7.74419 0 7.48819 0.0980005 7.29319 0.293L2.29319 5.293C2.00719 5.579 1.92119 6.009 2.07619 6.383C2.23119 6.756 2.59619 7 3.00019 7H5.00019V12C5.00019 12.552 5.44819 13 6.00019 13H10.0002C10.5522 13 11.0002 12.552 11.0002 12V7H13.0002C13.4042 7 13.7692 6.756 13.9242 6.383C14.0792 6.009 13.9932 5.579 13.7072 5.293L8.70719 0.293C8.51219 0.0980005 8.25619 0 8.00019 0Z" />
<path fill-rule="evenodd" clip-rule="evenodd" d="M15 17H1C0.448 17 0 16.552 0 16V13C0 12.448 0.448 12 1 12C1.552 12 2 12.448 2 13V15H14V13C14 12.448 14.448 12 15 12C15.552 12 16 12.448 16 13V16C16 16.552 15.552 17 15 17Z" />
</svg>
