<svg width="64" height="64" viewBox="0 0 64 64" fill="#434244" xmlns="http://www.w3.org/2000/svg">
    <path d="M49.5 36.5H44C42.9 36.5 42 37.4 42 38.5V49.5H41C39.9 49.5 39 50.4 39 51.5C39 52.6 39.9 53.5 41 53.5H42V55.5C42 56.6 42.9 57.5 44 57.5C45.1 57.5 46 56.6 46 55.5V53.5H47C48.1 53.5 49 52.6 49 51.5C49 50.4 48.1 49.5 47 49.5H46V47.5H49.5C52.53 47.5 55 45.03 55 42C55 38.97 52.53 36.5 49.5 36.5ZM49.5 43.5H46V40.5H49.5C50.33 40.5 51 41.17 51 42C51 42.83 50.33 43.5 49.5 43.5Z" />
    <path d="M19.33 33.5H17H14V36.5H11V39.5H8V42.5V44.83C8 45.2 8.3 45.5 8.67 45.5H11V42.5H14V39.5H17V36.5H20V34.17C20 33.8 19.7 33.5 19.33 33.5Z" />
    <path d="M14 42.5V45.5H17H19.33C19.7 45.5 20 45.2 20 44.83V42.5V39.5H17V42.5H14Z" />
    <path d="M8.67 33.5C8.3 33.5 8 33.8 8 34.17V36.5H11V33.5H8.67Z" />
    <path d="M28 51.5V19.06C28 16.54 25.95 14.5 23.44 14.5H11.5V11.56C11.5 11.37 11.59 11.24 11.66 11.16C11.73 11.08 11.87 11 12.06 11H30.94C31.13 11 31.26 11.09 31.34 11.16C31.42 11.24 31.51 11.37 31.51 11.56V30.5C31.51 31.6 32.41 32.5 33.51 32.5C34.61 32.5 35.51 31.6 35.51 30.5V11.56C35.51 10.34 35.04 9.2 34.17 8.33C33.3 7.47 32.16 7 30.94 7H18.5V4.56C18.5 4.37 18.59 4.24 18.66 4.16C18.73 4.08 18.87 4 19.06 4H37.94C38.13 4 38.26 4.09 38.34 4.16C38.42 4.24 38.51 4.37 38.51 4.56V26.5C38.51 27.6 39.41 28.5 40.51 28.5C41.61 28.5 42.51 27.6 42.51 26.5V4.56C42.51 3.34 42.04 2.2 41.18 1.34C40.3 0.48 39.16 0 37.94 0H19.06C17.84 0 16.7 0.47 15.83 1.34C14.97 2.2 14.5 3.34 14.5 4.56V7H12.06C10.84 7 9.7 7.47 8.84 8.34C7.97 9.2 7.5 10.34 7.5 11.56V14.5H4.56C2.05 14.5 0 16.55 0 19.06V58.94C0 61.46 2.05 63.5 4.56 63.5H23.44C25.96 63.5 28 61.45 28 58.94V55.5C29.1 55.5 30 54.6 30 53.5C30 52.4 29.1 51.5 28 51.5ZM24 58.94C24 59.25 23.75 59.5 23.44 59.5H4.56C4.25 59.5 4 59.25 4 58.94V19.06C4 18.75 4.25 18.5 4.56 18.5H23.44C23.75 18.5 24 18.75 24 19.06V58.94Z" />
    <path d="M47 29.5C37.63 29.5 30 37.13 30 46.5C30 55.87 37.63 63.5 47 63.5C56.37 63.5 64 55.87 64 46.5C64 37.13 56.37 29.5 47 29.5ZM47 59.5C39.83 59.5 34 53.67 34 46.5C34 39.33 39.83 33.5 47 33.5C54.17 33.5 60 39.33 60 46.5C60 53.67 54.17 59.5 47 59.5Z" />
</svg>
