<svg width="9" height="12" viewBox="0 0 9 12" fill="none" xmlns="http://www.w3.org/2000/svg">
<path d="M7.94911 7.14132L7.94913 7.14134C8.06602 7.2563 8.125 7.40775 8.125 7.55925C8.125 7.71076 8.06601 7.86217 7.94914 7.97715L7.94911 7.97718L4.92207 10.9529C4.68871 11.1824 4.31128 11.1824 4.07791 10.9529L1.05088 7.97711C0.816372 7.74656 0.816372 7.37179 1.05088 7.14125C1.28425 6.91183 1.66168 6.91183 1.89504 7.14125L3.90202 9.11428L3.90202 1.46497C3.90202 1.13716 4.17178 0.875 4.5 0.875C4.82816 0.875 5.09797 1.13715 5.09797 1.46497L5.09797 9.11428L7.10495 7.14132C7.33831 6.91191 7.71574 6.91191 7.94911 7.14132Z" stroke-width="0.25"/>
</svg>
