<svg width="16" height="11" viewBox="0 0 16 11" fill="none" xmlns="http://www.w3.org/2000/svg">
<path fill-rule="evenodd" clip-rule="evenodd" d="M14 2.3819V2.4169C14 2.9569 14.442 3.3999 14.983 3.3999H15.017C15.558 3.3999 16 2.9569 16 2.4169V2.3819C16 1.8419 15.558 1.3999 15.017 1.3999H14.983C14.442 1.3999 14 1.8419 14 2.3819Z" fill="#434244"/>
<path fill-rule="evenodd" clip-rule="evenodd" d="M13 2.3999C13 1.2959 12.104 0.399902 11 0.399902C10.262 0.399902 9.624 0.803902 9.277 1.3999L0.983 1.3999C0.441999 1.3999 0 1.8419 0 2.3819V2.4179C0 2.9579 0.441999 3.3999 0.983 3.3999L9.277 3.3999C9.624 3.9959 10.262 4.3999 11 4.3999C12.104 4.3999 13 3.5039 13 2.3999Z" fill="#434244"/>
<path fill-rule="evenodd" clip-rule="evenodd" d="M2 8.4179V8.3829C2 7.8429 1.558 7.3999 1.017 7.3999H0.983C0.442 7.3999 0 7.8429 0 8.3829V8.4179C0 8.9579 0.442 9.3999 0.983 9.3999H1.017C1.558 9.3999 2 8.9579 2 8.4179Z" fill="#434244"/>
<path fill-rule="evenodd" clip-rule="evenodd" d="M6.723 9.3999L15.017 9.3999C15.558 9.3999 16 8.9579 16 8.4179V8.3819C16 7.8419 15.558 7.3999 15.017 7.3999L6.723 7.3999C6.376 6.8039 5.739 6.3999 5 6.3999C3.896 6.3999 3 7.2959 3 8.3999C3 9.5039 3.896 10.3999 5 10.3999C5.739 10.3999 6.376 9.9959 6.723 9.3999Z" fill="#434244"/>
</svg>
