<svg width="64" height="64" viewBox="0 0 64 64" fill="#434244" xmlns="http://www.w3.org/2000/svg">
    <path d="M54.39 44H52.25H49.5V46.75H46.75V49.5H44V52.25V54.39C44 54.73 44.28 55 44.61 55H46.75V52.25H49.5V49.5H52.25V46.75H55V44.61C55 44.28 54.72 44 54.39 44Z" />
    <path d="M49.5 52.25V55H52.25H54.39C54.73 55 55 54.72 55 54.39V52.25V49.5H52.25V52.25H49.5Z" />
    <path d="M44.61 44C44.28 44 44 44.28 44 44.61V46.75H46.75V44H44.61Z" />
    <path d="M32 58C30.92 58 30.05 58.85 30.01 59.92C16.16 58.94 5.06 47.85 4.08 34H5C6.1 34 7 33.1 7 32C7 30.9 6.1 30 5 30H4.08C5.06 16.15 16.15 5.06 30 4.08V5C30 6.1 30.9 7 32 7C33.1 7 34 6.1 34 5V4.08C47.85 5.06 58.94 16.16 59.92 30.01C58.85 30.05 58 30.92 58 32C58 33.1 58.9 34 60 34H62C63.1 34 64 33.1 64 32C64 14.35 49.64 0 32 0C14.35 0 0 14.35 0 32C0 49.64 14.35 64 32 64C33.1 64 34 63.1 34 62C34 61.93 33.99 61.85 33.98 61.78C33.98 61.74 34 61.71 34 61.67V60C34 58.9 33.1 58 32 58Z" />
    <path d="M32 11C30.9 11 30 11.9 30 13V31.13L16.64 43.53C15.83 44.28 15.78 45.55 16.54 46.36C16.93 46.79 17.46 47 18 47C18.49 47 18.98 46.82 19.36 46.47L34 32.87V13C34 11.9 33.1 11 32 11Z" />
    <path d="M49 34C40.73 34 34 40.73 34 49C34 57.27 40.73 64 49 64C57.27 64 64 57.27 64 49C64 40.73 57.27 34 49 34ZM49 60C42.93 60 38 55.07 38 49C38 42.93 42.93 38 49 38C55.07 38 60 42.93 60 49C60 55.07 55.07 60 49 60Z" />
</svg>
