<svg width="20" height="20" viewBox="0 0 20 20" fill="none" xmlns="http://www.w3.org/2000/svg">
    <path fill-rule="evenodd" clip-rule="evenodd" d="M2.29289 4.41421L3.98816 6.08594C4.37868 6.47646 5.01185 6.47646 5.40237 6.08594L9.02369 2.70711C9.41422 2.31658 9.41422 1.68342 9.02369 1.29289C8.63317 0.902369 8 0.902369 7.60948 1.29289L4.71482 3.99372L3.70711 3C3.31658 2.60948 2.68342 2.60948 2.29289 3C1.90237 3.39052 1.90237 4.02369 2.29289 4.41421ZM13 12.0002C11.897 12.0002 11 11.1032 11 10.0002C11 9.66317 11.096 9.32917 11.283 9.00617C11.328 8.93017 11.367 8.85117 11.4 8.77117L13 6.00017L14.6 8.77117C14.633 8.85117 14.672 8.93017 14.717 9.00617C14.904 9.32917 15 9.66317 15 10.0002C15 11.1032 14.103 12.0002 13 12.0002ZM17 10.0002C17 9.26817 16.789 8.59117 16.445 8.00017H16.464L13.8659 3.50001C13.481 2.83338 12.5189 2.83332 12.1339 3.4999L9.535 8.00017H9.555C9.211 8.59117 9 9.26817 9 10.0002C9 12.2092 10.791 14.0002 13 14.0002C15.209 14.0002 17 12.2092 17 10.0002ZM3.50025 13.5002C3.24425 13.5002 2.98825 13.4022 2.79325 13.2072L2.29325 12.7072C1.90225 12.3162 1.90225 11.6842 2.29325 11.2932C2.68425 10.9022 3.31625 10.9022 3.70725 11.2932L4.20725 11.7932C4.59825 12.1842 4.59825 12.8162 4.20725 13.2072C4.01225 13.4022 3.75625 13.5002 3.50025 13.5002ZM3.00025 17.0002H17.0002C17.5532 17.0002 18.0002 16.5532 18.0002 16.0002C18.0002 15.4472 17.5532 15.0002 17.0002 15.0002H3.00025C2.44725 15.0002 2.00025 15.4472 2.00025 16.0002C2.00025 16.5532 2.44725 17.0002 3.00025 17.0002Z" fill="#63666A"/>
</svg>
