<svg width="16" height="16" viewBox="0 0 16 16" fill="none" xmlns="http://www.w3.org/2000/svg">
    <path fill-rule="evenodd" clip-rule="evenodd" d="M3.00025 14.0002C2.74425 14.0002 2.48825 13.9022 2.29325 13.7072C1.90225 13.3162 1.90225 12.6842 2.29325 12.2933L6.60825 7.97825L2.36725 3.70525C1.97825 3.31225 1.98025 2.67925 2.37225 2.29025C2.76625 1.90125 3.39825 1.90525 3.78725 2.29525L8.02225 6.56425L12.2933 2.29325C12.6842 1.90225 13.3162 1.90225 13.7072 2.29325C14.0982 2.68425 14.0982 3.31625 13.7072 3.70725L9.43125 7.98325L13.7102 12.2952C14.0992 12.6882 14.0962 13.3212 13.7052 13.7102C13.3123 14.0992 12.6792 14.0962 12.2902 13.7052L8.01725 9.39725L3.70725 13.7072C3.51225 13.9022 3.25625 14.0002 3.00025 14.0002Z" fill="#FF3D00"/>
</svg>
