<svg width="16" height="16" viewBox="0 0 16 16" fill="none" xmlns="http://www.w3.org/2000/svg">
    <path d="M7.9 0C3.6 0 0 3.6 0 7.9C0 12.3 3.6 15.8 7.9 15.8C12.2 15.8 15.8 12.2 15.8 7.9C15.8 3.6 12.3 0 7.9 0ZM13.9 7H11.8C11.7 5.4 11.4 3.8 10.9 2.6C12.5 3.5 13.7 5.1 13.9 7ZM7.9 14C7.1 14 6 12 5.9 8.8H10C9.8 12 8.7 14 7.9 14ZM5.9 7C6.1 3.8 7.2 1.8 7.9 1.8C8.6 1.8 9.8 3.8 9.9 7H5.9ZM5 2.6C4.4 3.9 4.1 5.5 4 7H1.9C2.2 5.1 3.4 3.5 5 2.6ZM1.9 8.8H4C4.1 10.4 4.4 12 5 13.2C3.4 12.3 2.2 10.7 1.9 8.8ZM10.9 13.2C11.4 11.9 11.8 10.4 11.8 8.8H13.9C13.7 10.7 12.5 12.3 10.9 13.2Z" fill="#434244"/>
</svg>
