<svg width="20" height="20" viewBox="0 0 20 20" fill="none" xmlns="http://www.w3.org/2000/svg">
    <path fill-rule="evenodd" clip-rule="evenodd" d="M10 7C10.5523 7 11 7.44772 11 8V11C11 11.5523 10.5523 12 10 12C9.44772 12 9 11.5523 9 11V8C9 7.44772 9.44772 7 10 7Z" fill="white"/>
    <path d="M9 14C9 13.4477 9.44772 13 10 13C10.5523 13 11 13.4477 11 14C11 14.5523 10.5523 15 10 15C9.44772 15 9 14.5523 9 14Z" fill="white"/>
    <path fill-rule="evenodd" clip-rule="evenodd" d="M10 2C10.3395 2 10.6507 2.18334 10.8072 2.47551L17.8975 15.7108C18.0441 15.9843 18.0328 16.3122 17.8678 16.5757C17.7029 16.8391 17.4081 17 17.0903 17H2.90969C2.59189 17 2.29713 16.8391 2.13216 16.5757C1.9672 16.3122 1.95594 15.9843 2.10247 15.7108L9.19278 2.47551C9.34931 2.18334 9.66053 2 10 2ZM4.40754 15.2353H15.5925L10 4.796L4.40754 15.2353Z" fill="white"/>
</svg>
