<svg width="64" height="64" viewBox="0 0 64 64" fill="#434244" xmlns="http://www.w3.org/2000/svg">
    <path d="M27 35H10C8.9 35 8 35.9 8 37C8 38.1 8.9 39 10 39H27C28.1 39 29 38.1 29 37C29 35.9 28.1 35 27 35Z" />
    <path d="M23.42 42.75H10C8.9 42.75 8 43.65 8 44.75C8 45.85 8.9 46.75 10 46.75H23.42C24.52 46.75 25.42 45.85 25.42 44.75C25.42 43.65 24.53 42.75 23.42 42.75Z" />
    <path d="M18 31C22.41 31 26 27.41 26 23C26 18.59 22.41 15 18 15C13.59 15 10 18.59 10 23C10 27.41 13.59 31 18 31ZM18 19C20.21 19 22 20.79 22 23C22 25.21 20.21 27 18 27C15.79 27 14 25.21 14 23C14 20.79 15.79 19 18 19Z" />
    <path d="M48.5 36H43C41.9 36 41 36.9 41 38V49H40C38.9 49 38 49.9 38 51C38 52.1 38.9 53 40 53H41V55C41 56.1 41.9 57 43 57C44.1 57 45 56.1 45 55V53H46C47.1 53 48 52.1 48 51C48 49.9 47.1 49 46 49H45V47H48.5C51.53 47 54 44.53 54 41.5C54 38.47 51.53 36 48.5 36ZM48.5 43H45V40H48.5C49.33 40 50 40.67 50 41.5C50 42.33 49.33 43 48.5 43Z" />
    <path d="M46 28C42.48 28 39.08 29.04 36.17 30.94V3.14C36.17 1.41 34.76 0 33.03 0H26.69C24.92 0 23.4 1.24 23.08 2.94C22.63 5.29 20.57 7 18.17 7C15.77 7 13.71 5.29 13.26 2.94C12.93 1.24 11.41 0 9.64 0H3.14C1.41 0 0 1.41 0 3.14V32V60.86C0 62.59 1.41 64 3.14 64H9.48C11.25 64 12.77 62.76 13.09 61.06C13.54 58.71 15.6 57 18 57C20.4 57 22.46 58.71 22.91 61.06C23.24 62.76 24.75 64 26.52 64H33.02C34.69 64 36.04 62.69 36.14 61.05C39.06 62.96 42.46 64 46 64C55.92 64 64 55.92 64 46C64 36.08 55.92 28 46 28ZM32.17 60H26.78C25.86 55.93 22.21 53 18 53C13.79 53 10.15 55.93 9.22 60H4V32V4H9.39C10.31 8.07 13.96 11 18.17 11C22.38 11 26.02 8.08 26.95 4H32.17V32V60ZM46 60C42.48 60 39.11 58.69 36.52 56.3C36.41 56.2 36.29 56.11 36.17 56.04V35.89C36.34 35.81 36.5 35.71 36.65 35.58C39.22 33.27 42.54 32 46 32C53.72 32 60 38.28 60 46C60 53.72 53.72 60 46 60Z" />
</svg>
