<svg width="364" height="71" viewBox="0 0 364 71" fill="none" xmlns="http://www.w3.org/2000/svg">
    <rect width="363.1" height="70.9" fill="black" fill-opacity="0"/>
    <rect width="363.1" height="70.9" fill="black" fill-opacity="0"/>
    <path d="M221.1 16.7001H218V20.7001H216.1V11.1001H218V15.0001H221.1V11.1001H223V20.7001H221.1V16.7001Z" fill="#52535A"/>
    <path d="M230.4 18.6001H227.5L226.8 20.7001H224.9L228 11.1001H229.9L233 20.7001H231L230.4 18.6001ZM227.9 17.1001H230L229 13.9001H228.9L227.9 17.1001Z" fill="#52535A"/>
    <path d="M242.6 22.6001H240.9V20.7001H235V11.1001H236.9V19.0001H239.5V11.1001H241.4V19.0001H242.6V22.6001Z" fill="#52535A"/>
    <path d="M249.5 15.6001L249.7 14.4001H249.6L249 15.7001L246.3 20.7001H244.5V11.1001H246.4V16.1001L246.3 17.4001H246.4L247 16.0001L249.7 11.1001H251.4V20.7001H249.5V15.6001Z" fill="#52535A"/>
    <path d="M253.8 15.8999C253.8 15.0999 253.9 14.3999 254 13.7999C254.1 13.1999 254.4 12.6999 254.7 12.1999C255 11.7999 255.4 11.3999 255.8 11.1999C256.3 10.9999 256.8 10.8999 257.4 10.8999C258.1 10.8999 258.6 10.9999 259.1 11.2999C259.6 11.4999 259.9 11.8999 260.2 12.2999C260.5 12.6999 260.7 13.2999 260.8 13.8999C260.9 14.4999 261 15.1999 261 15.8999C261 17.4999 260.7 18.6999 260.1 19.5999C259.5 20.4999 258.6 20.8999 257.4 20.8999C256.7 20.8999 256.2 20.7999 255.7 20.4999C255.2 20.2999 254.9 19.8999 254.6 19.4999C254.3 19.0999 254.1 18.4999 254 17.8999C253.9 17.2999 253.8 16.5999 253.8 15.8999ZM255.8 15.8999C255.8 16.3999 255.8 16.7999 255.9 17.1999C255.9 17.5999 256 17.9999 256.1 18.2999C256.2 18.5999 256.4 18.7999 256.6 18.9999C256.8 19.1999 257.1 19.2999 257.5 19.2999C257.8 19.2999 258.1 19.1999 258.3 19.0999C258.5 18.9999 258.7 18.7999 258.8 18.4999C258.9 18.1999 259 17.8999 259.1 17.4999C259.2 17.0999 259.2 16.5999 259.2 15.9999C259.2 15.5999 259.2 15.0999 259.1 14.6999C259.1 14.2999 259 13.8999 258.9 13.5999C258.8 13.2999 258.6 13.0999 258.4 12.8999C258.2 12.6999 257.9 12.5999 257.5 12.5999C256.9 12.5999 256.4 12.8999 256.2 13.3999C255.9 13.9999 255.8 14.7999 255.8 15.8999Z" fill="#52535A"/>
    <path d="M268.4 16.7001H265.3V20.7001H263.4V11.1001H265.3V15.0001H268.4V11.1001H270.3V20.7001H268.4V16.7001Z" fill="#52535A"/>
    <path d="M277.7 18.6001H274.8L274.1 20.7001H272.2L275.3 11.1001H277.2L280.3 20.7001H278.3L277.7 18.6001ZM275.3 17.1001H277.4L276.4 13.9001H276.3L275.3 17.1001Z" fill="#52535A"/>
    <path d="M287.8 12.8H286C286 13.7 285.9 14.5 285.9 15.2C285.8 15.9 285.8 16.6 285.7 17.1C285.6 17.7 285.5 18.2 285.4 18.6C285.3 19 285.1 19.4 285 19.7C284.7 20.1 284.4 20.4 284.1 20.6C283.8 20.8 283.4 20.8 283.1 20.8C282.9 20.8 282.7 20.8 282.5 20.7C282.3 20.7 282.2 20.6 282.1 20.6L282.3 19C282.3 19 282.4 19 282.5 19C282.6 19 282.6 19 282.7 19C282.8 19 283 19 283.1 18.9C283.3 18.8 283.4 18.7 283.5 18.5C283.6 18.3 283.7 18 283.8 17.6C283.9 17.2 284 16.7 284 16.1C284.1 15.5 284.1 14.8 284.1 13.9C284.1 13.1 284.2 12.1 284.2 11H289.6V20.6H287.7V12.8H287.8Z" fill="#52535A"/>
    <path d="M292.3 11.1001H294.2V14.6001C294.2 14.6001 294.3 14.6001 294.4 14.6001C294.5 14.6001 294.6 14.6001 294.7 14.6001C294.8 14.6001 295 14.6001 295.1 14.6001C295.2 14.6001 295.3 14.6001 295.5 14.6001C295.9 14.6001 296.4 14.6001 296.8 14.7001C297.2 14.8001 297.6 15.0001 297.9 15.2001C298.2 15.4001 298.5 15.7001 298.7 16.1001C298.9 16.5001 299 17.0001 299 17.6001C299 18.7001 298.7 19.5001 298 20.1001C297.3 20.7001 296.3 20.9001 295.1 20.9001C295 20.9001 294.8 20.9001 294.6 20.9001C294.4 20.9001 294.1 20.9001 293.9 20.9001C293.6 20.9001 293.4 20.9001 293.1 20.8001C292.8 20.8001 292.6 20.7001 292.4 20.7001V11.1001H292.3ZM295.1 19.2001C295.4 19.2001 295.6 19.2001 295.8 19.1001C296 19.0001 296.2 19.0001 296.4 18.8001C296.6 18.7001 296.7 18.5001 296.8 18.3001C296.9 18.1001 296.9 17.8001 296.9 17.6001C296.9 17.3001 296.8 17.0001 296.7 16.8001C296.6 16.6001 296.5 16.4001 296.3 16.3001C296.1 16.2001 295.9 16.1001 295.7 16.1001C295.5 16.1001 295.2 16.0001 295 16.0001C294.9 16.0001 294.9 16.0001 294.8 16.0001C294.7 16.0001 294.6 16.0001 294.5 16.0001C294.4 16.0001 294.3 16.0001 294.2 16.0001C294.1 16.0001 294.1 16.0001 294 16.0001V18.9001C294.1 18.9001 294.2 18.9001 294.4 19.0001C294.8 19.2001 295 19.2001 295.1 19.2001Z" fill="#52535A"/>
    <path d="M306.3 16.7001H303.2V20.7001H301.3V11.1001H303.2V15.0001H306.3V11.1001H308.2V20.7001H306.3V16.7001Z" fill="#52535A"/>
    <path d="M315.6 18.6001H312.7L312 20.7001H310.1L313.2 11.1001H315.1L318.2 20.7001H316.2L315.6 18.6001ZM313.1 17.1001H315.2L314.2 13.9001H314.1L313.1 17.1001Z" fill="#52535A"/>
    <path d="M327.2 20.7001H325.3V17.1001H324.4L322.3 20.7001H320.1L322.5 16.8001C322.3 16.7001 322.1 16.6001 321.9 16.5001C321.7 16.4001 321.5 16.2001 321.3 16.0001C321.1 15.8001 321 15.5001 320.9 15.2001C320.8 14.9001 320.7 14.5001 320.7 14.1001C320.7 13.5001 320.8 13.0001 321.1 12.6001C321.4 12.2001 321.7 11.9001 322.1 11.6001C322.5 11.4001 322.8 11.2001 323.2 11.2001C323.6 11.1001 324.1 11.1001 324.6 11.1001C324.8 11.1001 324.9 11.1001 325.1 11.1001C325.3 11.1001 325.5 11.1001 325.7 11.1001C325.9 11.1001 326.1 11.1001 326.3 11.2001C326.5 11.2001 326.7 11.3001 326.9 11.3001V20.7001H327.2ZM325.4 12.7001C325.3 12.7001 325.2 12.7001 325.1 12.7001C325 12.7001 324.8 12.7001 324.7 12.7001C324.5 12.7001 324.3 12.7001 324.1 12.8001C323.9 12.9001 323.7 12.9001 323.5 13.1001C323.4 13.2001 323.2 13.4001 323.1 13.6001C323 13.8001 322.9 14.0001 322.9 14.3001C322.9 14.5001 322.9 14.8001 323 14.9001C323.1 15.1001 323.2 15.3001 323.4 15.4001C323.6 15.5001 323.8 15.7001 324 15.7001C324.3 15.8001 324.5 15.8001 324.8 15.8001H325.4V12.7001Z" fill="#52535A"/>
    <path d="M221.5 36.9999H223V39.7999C222.7 39.9999 222.3 40.1999 221.9 40.2999C221.4 40.3999 221 40.4999 220.5 40.4999C219.9 40.4999 219.3 40.3999 218.8 40.1999C218.3 39.9999 217.8 39.6999 217.4 39.2999C217 38.8999 216.7 38.3999 216.4 37.6999C216.2 37.0999 216 36.2999 216 35.3999C216 34.4999 216.1 33.6999 216.4 32.9999C216.7 32.3999 217 31.7999 217.5 31.4999C217.9 31.0999 218.4 30.7999 219 30.6999C219.5 30.4999 220.1 30.3999 220.6 30.3999C221.2 30.3999 221.6 30.3999 222 30.4999C222.4 30.5999 222.7 30.6999 222.9 30.7999V33.6999H221.4V32.0999C221.1 32.0999 220.8 31.9999 220.5 31.9999C220.1 31.9999 219.8 32.0999 219.5 32.1999C219.2 32.2999 218.9 32.4999 218.7 32.7999C218.5 33.0999 218.3 33.3999 218.2 33.7999C218.1 34.1999 218 34.6999 218 35.2999C218 35.7999 218.1 36.1999 218.2 36.6999C218.3 37.0999 218.5 37.4999 218.7 37.7999C218.9 38.0999 219.2 38.2999 219.5 38.4999C219.8 38.6999 220.2 38.6999 220.6 38.6999C220.9 38.6999 221.2 38.6999 221.5 38.5999V36.9999Z" fill="#52535A"/>
    <path d="M230.5 35.1001L230.6 33.9001H230.5L230 35.2001L227.3 40.2001H225.5V30.6001H227.4V35.6001L227.3 36.9001L227.9 35.5001L230.7 30.6001H232.4V40.2001H230.5V35.1001Z" fill="#52535A"/>
    <path d="M240.3 36.9999H241.8V39.7999C241.5 39.9999 241.1 40.1999 240.7 40.2999C240.2 40.3999 239.8 40.4999 239.3 40.4999C238.7 40.4999 238.1 40.3999 237.6 40.1999C237.1 39.9999 236.6 39.6999 236.2 39.2999C235.8 38.8999 235.5 38.3999 235.2 37.6999C235 37.0999 234.8 36.2999 234.8 35.3999C234.8 34.4999 234.9 33.6999 235.2 32.9999C235.5 32.3999 235.8 31.7999 236.3 31.4999C236.7 31.0999 237.2 30.7999 237.8 30.6999C238.3 30.4999 238.9 30.3999 239.4 30.3999C240 30.3999 240.4 30.3999 240.8 30.4999C241.2 30.5999 241.5 30.6999 241.7 30.7999V33.6999H240.2V32.0999C239.9 32.0999 239.6 31.9999 239.3 31.9999C238.9 31.9999 238.6 32.0999 238.3 32.1999C238 32.2999 237.7 32.4999 237.5 32.7999C237.3 33.0999 237.1 33.3999 237 33.7999C236.9 34.1999 236.8 34.6999 236.8 35.2999C236.8 35.7999 236.9 36.1999 237 36.6999C237.1 37.0999 237.3 37.4999 237.5 37.7999C237.7 38.0999 238 38.2999 238.3 38.4999C238.6 38.6999 239 38.6999 239.4 38.6999C239.7 38.6999 240 38.6999 240.3 38.5999V36.9999Z" fill="#52535A"/>
    <path d="M245.1 38.7001H246.6V32.1001H245.3V33.8001H243.8V30.6001H251.3V33.8001H249.8V32.1001H248.5V38.7001H250.1V40.2001H245.1V38.7001Z" fill="#52535A"/>
    <path d="M253.6 30.6001H259.9V32.3001H255.5V34.5001H259.6V36.2001H255.5V38.5001H260V40.2001H253.6V30.6001Z" fill="#52535A"/>
    <path d="M267.8 35.1001V33.6001L266.2 36.1001H265.9L264.3 33.6001H264.2L264.3 34.9001V40.2001H262.5V30.6001H264.4L266.1 33.2001L267.8 30.6001H269.7V40.2001H267.8V35.1001Z" fill="#52535A"/>
    <path d="M277 38.1001H274.1L273.4 40.2001H271.5L274.6 30.6001H276.5L279.6 40.2001H277.6L277 38.1001ZM274.6 36.6001H276.7L275.7 33.4001H275.6L274.6 36.6001Z" fill="#52535A"/>
    <path d="M294.1 42.1001H292.4V40.2001H286.5V30.6001H288.4V38.5001H291V30.6001H292.9V38.5001H294.1V42.1001Z" fill="#52535A"/>
    <path d="M301.6 35.1001L301.7 33.9001L301.1 35.2001L298.4 40.2001H296.6V30.6001H298.5V35.6001L298.4 36.9001L299 35.5001L301.8 30.6001H303.5V40.2001H301.6V35.1001Z" fill="#52535A"/>
    <path d="M309.2 30.2998H311V31.2998C311.4 31.2998 311.8 31.3998 312.2 31.4998C312.6 31.5998 312.9 31.7998 313.2 32.0998C313.5 32.3998 313.7 32.7998 313.9 33.2998C314.1 33.7998 314.2 34.3998 314.2 35.1998C314.2 35.8998 314.1 36.5998 313.9 37.0998C313.7 37.5998 313.5 37.9998 313.2 38.2998C312.9 38.5998 312.6 38.7998 312.2 38.9998C311.8 39.0998 311.4 39.1998 311 39.2998V40.4998H309.2V39.2998C308.8 39.2998 308.4 39.1998 308 38.9998C307.6 38.8998 307.3 38.5998 307 38.2998C306.7 37.9998 306.5 37.5998 306.3 37.0998C306.1 36.5998 306 35.9998 306 35.1998C306 34.4998 306.1 33.8998 306.3 33.3998C306.5 32.8998 306.7 32.4998 307 32.1998C307.3 31.8998 307.6 31.6998 308 31.4998C308.4 31.3998 308.8 31.2998 309.2 31.2998V30.2998ZM309.3 32.8998C308.8 32.8998 308.5 33.1998 308.2 33.4998C308 33.8998 307.9 34.4998 307.9 35.2998C307.9 35.7998 307.9 36.1998 308 36.4998C308.1 36.7998 308.2 37.0998 308.3 37.2998C308.4 37.4998 308.6 37.5998 308.7 37.6998C308.9 37.7998 309.1 37.7998 309.3 37.8998V32.8998ZM311 37.7998C311.2 37.7998 311.4 37.6998 311.6 37.5998C311.8 37.4998 311.9 37.3998 312.1 37.1998C312.2 36.9998 312.3 36.7998 312.4 36.3998C312.5 36.0998 312.5 35.6998 312.5 35.1998C312.5 34.3998 312.4 33.7998 312.2 33.3998C312 32.9998 311.6 32.7998 311.1 32.7998V37.7998H311Z" fill="#52535A"/>
    <path d="M317 30.6999C317.4 30.5999 317.8 30.5999 318.3 30.4999C318.8 30.4999 319.2 30.3999 319.7 30.3999C320.2 30.3999 320.7 30.3999 321.1 30.4999C321.6 30.5999 322 30.6999 322.4 30.9999C322.8 31.1999 323.1 31.5999 323.3 31.9999C323.5 32.3999 323.7 32.9999 323.7 33.5999C323.7 34.1999 323.6 34.6999 323.4 35.0999C323.2 35.4999 322.9 35.8999 322.6 36.0999C322.3 36.3999 321.9 36.5999 321.4 36.6999C321 36.7999 320.5 36.8999 320 36.8999H319.8C319.7 36.8999 319.6 36.8999 319.5 36.8999C319.4 36.8999 319.3 36.8999 319.2 36.8999C319.1 36.8999 319 36.8999 319 36.8999V40.1999H317V30.6999ZM319.8 32.0999C319.6 32.0999 319.4 32.0999 319.3 32.0999C319.1 32.0999 319 32.0999 318.9 32.1999V35.2999C318.9 35.2999 319 35.2999 319.1 35.2999C319.2 35.2999 319.3 35.2999 319.3 35.2999C319.4 35.2999 319.5 35.2999 319.5 35.2999H319.7C319.9 35.2999 320.2 35.2999 320.4 35.1999C320.6 35.1999 320.9 35.0999 321.1 34.8999C321.3 34.7999 321.4 34.5999 321.6 34.3999C321.7 34.1999 321.8 33.8999 321.8 33.4999C321.8 33.1999 321.7 32.8999 321.6 32.7999C321.5 32.5999 321.3 32.3999 321.2 32.2999C321 32.1999 320.8 32.0999 320.6 32.0999C320.3 32.0999 320 32.0999 319.8 32.0999Z" fill="#52535A"/>
    <path d="M326.3 35.3999C326.3 34.5999 326.4 33.8999 326.5 33.2999C326.6 32.6999 326.9 32.1999 327.2 31.6999C327.5 31.2999 327.9 30.8999 328.3 30.6999C328.8 30.4999 329.3 30.3999 329.9 30.3999C330.6 30.3999 331.1 30.4999 331.6 30.7999C332.1 30.9999 332.4 31.3999 332.7 31.7999C333 32.1999 333.2 32.7999 333.3 33.3999C333.4 33.9999 333.5 34.6999 333.5 35.3999C333.5 36.9999 333.2 38.1999 332.6 39.0999C332 39.9999 331.1 40.3999 329.9 40.3999C329.2 40.3999 328.7 40.2999 328.2 39.9999C327.7 39.7999 327.4 39.3999 327.1 38.9999C326.8 38.5999 326.6 37.9999 326.5 37.3999C326.4 36.7999 326.3 36.0999 326.3 35.3999ZM328.3 35.3999C328.3 35.8999 328.3 36.2999 328.4 36.6999C328.4 37.0999 328.5 37.4999 328.6 37.7999C328.7 38.0999 328.9 38.2999 329.1 38.4999C329.3 38.6999 329.6 38.7999 330 38.7999C330.3 38.7999 330.6 38.6999 330.8 38.5999C331 38.4999 331.2 38.2999 331.3 37.9999C331.4 37.6999 331.5 37.3999 331.6 36.9999C331.6 36.5999 331.7 36.0999 331.7 35.4999C331.7 35.0999 331.7 34.5999 331.7 34.1999C331.7 33.7999 331.6 33.3999 331.5 33.0999C331.4 32.7999 331.2 32.5999 331 32.3999C330.8 32.1999 330.5 32.0999 330.1 32.0999C329.5 32.0999 329 32.3999 328.8 32.8999C328.4 33.4999 328.3 34.2999 328.3 35.3999Z" fill="#52535A"/>
    <path d="M343 32.8C343 33 343 33.3 342.9 33.5C342.8 33.7 342.7 34 342.6 34.2C342.5 34.4 342.3 34.6 342.1 34.7C341.9 34.9 341.6 35 341.3 35V35.1C341.6 35.1 341.8 35.2 342.1 35.3C342.3 35.4 342.6 35.6 342.7 35.8C342.9 36 343 36.2 343.1 36.5C343.2 36.8 343.3 37.1 343.3 37.5C343.3 38 343.2 38.4 343 38.8C342.8 39.2 342.5 39.5 342.2 39.7C341.8 39.9 341.4 40.1 341 40.2C340.6 40.3 340.1 40.4 339.6 40.4H339C338.8 40.4 338.5 40.4 338.2 40.4C337.9 40.4 337.6 40.4 337.3 40.3C337 40.3 336.7 40.2 336.5 40.2V30.7C336.7 30.7 336.9 30.6 337.1 30.6C337.3 30.6 337.6 30.5 337.8 30.5C338.1 30.5 338.3 30.5 338.6 30.5C338.9 30.5 339.1 30.5 339.4 30.5C339.8 30.5 340.3 30.5 340.7 30.6C341.1 30.7 341.5 30.8 341.8 31C342.1 31.2 342.4 31.4 342.6 31.7C342.9 31.9 343 32.3 343 32.8ZM339 34.6C339.1 34.6 339.3 34.6 339.5 34.6C339.7 34.6 339.8 34.6 339.9 34.6C340.3 34.5 340.6 34.3 340.8 34.1C341.1 33.9 341.2 33.6 341.2 33.2C341.2 33 341.2 32.8 341.1 32.6C341 32.4 340.9 32.3 340.7 32.2C340.5 32.1 340.4 32 340.2 32C340 32 339.8 31.9 339.6 31.9C339.4 31.9 339.1 31.9 338.9 31.9C338.7 31.9 338.5 31.9 338.4 31.9V34.4H339V34.6ZM339.6 38.8C339.8 38.8 340.1 38.8 340.3 38.7C340.5 38.6 340.7 38.6 340.9 38.4C341.1 38.3 341.2 38.1 341.3 38C341.4 37.8 341.5 37.6 341.5 37.4C341.5 37.1 341.4 36.9 341.3 36.7C341.2 36.5 341 36.4 340.8 36.3C340.6 36.2 340.4 36.1 340.2 36.1C340 36.1 339.7 36.1 339.5 36.1H338.5V38.7C338.5 38.7 338.6 38.7 338.7 38.7C338.8 38.7 338.9 38.7 339 38.7C339.1 38.7 339.2 38.7 339.4 38.7C339.4 38.8 339.5 38.8 339.6 38.8Z" fill="#52535A"/>
    <path d="M346 35.3999C346 34.5999 346.1 33.8999 346.2 33.2999C346.3 32.6999 346.6 32.1999 346.9 31.6999C347.2 31.2999 347.6 30.8999 348 30.6999C348.5 30.4999 349 30.3999 349.6 30.3999C350.3 30.3999 350.8 30.4999 351.3 30.7999C351.8 30.9999 352.1 31.3999 352.4 31.7999C352.7 32.1999 352.9 32.7999 353 33.3999C353.1 33.9999 353.2 34.6999 353.2 35.3999C353.2 36.9999 352.9 38.1999 352.3 39.0999C351.7 39.9999 350.8 40.3999 349.6 40.3999C348.9 40.3999 348.4 40.2999 347.9 39.9999C347.4 39.7999 347.1 39.3999 346.8 38.9999C346.5 38.5999 346.3 37.9999 346.2 37.3999C346.1 36.7999 346 36.0999 346 35.3999ZM348 35.3999C348 35.8999 348 36.2999 348.1 36.6999C348.1 37.0999 348.2 37.4999 348.3 37.7999C348.4 38.0999 348.6 38.2999 348.8 38.4999C349 38.6999 349.3 38.7999 349.7 38.7999C350 38.7999 350.3 38.6999 350.5 38.5999C350.7 38.4999 350.9 38.2999 351 37.9999C351.1 37.6999 351.2 37.3999 351.3 36.9999C351.4 36.5999 351.4 36.0999 351.4 35.4999C351.4 35.0999 351.4 34.5999 351.4 34.1999C351.4 33.7999 351.3 33.3999 351.2 33.0999C351.1 32.7999 350.9 32.5999 350.7 32.3999C350.5 32.1999 350.2 32.0999 349.8 32.0999C349.2 32.0999 348.7 32.3999 348.5 32.8999C348.1 33.4999 348 34.2999 348 35.3999Z" fill="#52535A"/>
    <path d="M361.2 35.1L361.3 33.8H361.2L360.6 35.1L357.9 40.2H356.2V30.6H358.1V35.6L358 36.9H358.1L358.7 35.6L361.4 30.6H363.1V40.2H361.2V35.1ZM358.8 28C358.8 28.3 358.9 28.5 359.1 28.6C359.3 28.7 359.5 28.8 359.8 28.8C360.4 28.8 360.8 28.5 360.8 28L362.3 28.2C362.2 28.8 361.9 29.2 361.5 29.5C361.1 29.8 360.5 29.9 359.7 29.9C359.3 29.9 359 29.9 358.7 29.8C358.4 29.7 358.1 29.7 357.9 29.5C357.7 29.4 357.5 29.2 357.3 29C357.1 28.8 357.1 28.5 357 28.2L358.8 28Z" fill="#52535A"/>
    <path d="M221.2 54.6001L221.3 53.1001H221.2L219.6 55.6001H219.3L217.7 53.1001H217.6L217.7 54.4001V59.7001H215.9V50.1001H217.8L219.5 52.7001H219.6L221.2 50.1001H223.1V59.7001H221.2V54.6001Z" fill="#52535A"/>
    <path d="M231 57.6001H228.1L227.4 59.7001H225.5L228.6 50.1001H230.5L233.6 59.7001H231.6L231 57.6001ZM228.5 56.1001H230.6L229.6 52.9001H229.5L228.5 56.1001Z" fill="#52535A"/>
    <path d="M236.3 50.1999C236.7 50.0999 237.1 50.0999 237.6 49.9999C238.1 49.9999 238.5 49.8999 239 49.8999C239.5 49.8999 240 49.8999 240.4 49.9999C240.9 50.0999 241.3 50.1999 241.7 50.4999C242.1 50.6999 242.4 51.0999 242.6 51.4999C242.8 51.8999 243 52.4999 243 53.0999C243 53.6999 242.9 54.1999 242.7 54.5999C242.5 54.9999 242.2 55.3999 241.9 55.5999C241.6 55.8999 241.2 56.0999 240.7 56.1999C240.3 56.2999 239.8 56.3999 239.3 56.3999H239.1C239 56.3999 238.9 56.3999 238.8 56.3999C238.7 56.3999 238.6 56.3999 238.5 56.3999C238.4 56.3999 238.3 56.3999 238.3 56.3999V59.6999H236.4V50.1999H236.3ZM239.1 51.5999C238.9 51.5999 238.7 51.5999 238.6 51.5999C238.4 51.5999 238.3 51.5999 238.2 51.5999V54.6999C238.2 54.6999 238.3 54.6999 238.4 54.6999C238.5 54.6999 238.6 54.6999 238.6 54.6999C238.7 54.6999 238.8 54.6999 238.8 54.6999H239C239.2 54.6999 239.5 54.6999 239.7 54.5999C239.9 54.5999 240.2 54.4999 240.4 54.2999C240.6 54.1999 240.7 53.9999 240.9 53.7999C241 53.5999 241.1 53.2999 241.1 52.8999C241.1 52.5999 241 52.2999 240.9 52.1999C240.8 51.9999 240.6 51.7999 240.5 51.6999C240.3 51.5999 240.1 51.4999 239.9 51.4999C239.6 51.5999 239.4 51.5999 239.1 51.5999Z" fill="#52535A"/>
    <path d="M248.7 55.7001H247.7V59.7001H245.8V50.1001H247.7V54.0001H248.7L250.9 50.1001H253L250.3 54.7001L253.3 59.7001H251L248.7 55.7001Z" fill="#52535A"/>
    <path d="M260.8 54.6001L261 53.4001H260.9L260.3 54.7001L257.6 59.7001H255.9V50.1001H257.7V55.1001L257.6 56.4001H257.7L258.3 55.0001L261 50.1001H262.7V59.7001H260.8V54.6001Z" fill="#52535A"/>
    <path d="M266.1 50.1999C266.5 50.0999 266.9 50.0999 267.4 49.9999C267.9 49.9999 268.3 49.8999 268.8 49.8999C269.3 49.8999 269.8 49.8999 270.2 49.9999C270.7 50.0999 271.1 50.1999 271.5 50.4999C271.9 50.6999 272.2 51.0999 272.4 51.4999C272.6 51.8999 272.8 52.4999 272.8 53.0999C272.8 53.6999 272.7 54.1999 272.5 54.5999C272.3 54.9999 272 55.3999 271.7 55.5999C271.4 55.8999 271 56.0999 270.5 56.1999C270.1 56.2999 269.6 56.3999 269.1 56.3999H268.9C268.8 56.3999 268.7 56.3999 268.6 56.3999C268.5 56.3999 268.4 56.3999 268.3 56.3999C268.2 56.3999 268.1 56.3999 268.1 56.3999V59.6999H266.2V50.1999H266.1ZM268.9 51.5999C268.7 51.5999 268.5 51.5999 268.4 51.5999C268.2 51.5999 268.1 51.5999 268 51.5999V54.6999C268 54.6999 268.1 54.6999 268.2 54.6999C268.3 54.6999 268.4 54.6999 268.4 54.6999C268.5 54.6999 268.6 54.6999 268.6 54.6999H268.8C269 54.6999 269.3 54.6999 269.5 54.5999C269.7 54.5999 270 54.4999 270.2 54.2999C270.4 54.1999 270.5 53.9999 270.7 53.7999C270.8 53.5999 270.9 53.2999 270.9 52.8999C270.9 52.5999 270.8 52.2999 270.7 52.1999C270.6 51.9999 270.4 51.7999 270.3 51.6999C270.1 51.5999 269.9 51.4999 269.7 51.4999C269.3 51.5999 269.1 51.5999 268.9 51.5999Z" fill="#52535A"/>
    <path d="M275.4 54.8999C275.4 54.0999 275.5 53.3999 275.6 52.7999C275.7 52.1999 276 51.6999 276.3 51.1999C276.6 50.7999 277 50.3999 277.4 50.1999C277.9 49.9999 278.4 49.8999 279 49.8999C279.7 49.8999 280.2 49.9999 280.7 50.2999C281.2 50.4999 281.5 50.8999 281.8 51.2999C282.1 51.6999 282.3 52.2999 282.4 52.8999C282.5 53.4999 282.6 54.1999 282.6 54.8999C282.6 56.4999 282.3 57.6999 281.7 58.5999C281.1 59.4999 280.2 59.8999 279 59.8999C278.3 59.8999 277.8 59.7999 277.3 59.4999C276.8 59.2999 276.5 58.8999 276.2 58.4999C275.9 58.0999 275.7 57.4999 275.6 56.8999C275.5 56.2999 275.4 55.5999 275.4 54.8999ZM277.4 54.8999C277.4 55.3999 277.4 55.7999 277.5 56.1999C277.5 56.5999 277.6 56.9999 277.7 57.2999C277.8 57.5999 278 57.7999 278.2 57.9999C278.4 58.1999 278.7 58.2999 279.1 58.2999C279.4 58.2999 279.7 58.1999 279.9 58.0999C280.1 57.9999 280.3 57.7999 280.4 57.4999C280.5 57.1999 280.6 56.8999 280.7 56.4999C280.7 56.0999 280.8 55.5999 280.8 54.9999C280.8 54.5999 280.8 54.0999 280.8 53.6999C280.8 53.2999 280.7 52.8999 280.6 52.5999C280.5 52.2999 280.3 52.0999 280.1 51.8999C279.9 51.6999 279.6 51.5999 279.2 51.5999C278.6 51.5999 278.1 51.8999 277.9 52.3999C277.5 52.9999 277.4 53.7999 277.4 54.8999Z" fill="#52535A"/>
    <path d="M292.1 52.3C292.1 52.5 292.1 52.8 292 53C291.9 53.2 291.8 53.5 291.7 53.7C291.6 53.9 291.4 54.1 291.2 54.2C291 54.4 290.7 54.5 290.4 54.5V54.6C290.7 54.6 290.9 54.7 291.2 54.8C291.4 54.9 291.7 55.1 291.8 55.3C292 55.5 292.1 55.7 292.2 56C292.3 56.3 292.4 56.6 292.4 57C292.4 57.5 292.3 57.9 292.1 58.3C291.9 58.7 291.6 59 291.3 59.2C290.9 59.4 290.5 59.6 290.1 59.7C289.7 59.8 289.2 59.9 288.7 59.9H288.1C287.9 59.9 287.6 59.9 287.3 59.9C287 59.9 286.7 59.9 286.4 59.8C286.1 59.8 285.8 59.7 285.6 59.7V50.2C285.8 50.2 286 50.1 286.2 50.1C286.4 50.1 286.7 50 286.9 50C287.2 50 287.4 50 287.7 50C288 50 288.2 50 288.5 50C288.9 50 289.4 50 289.8 50.1C290.2 50.2 290.6 50.3 290.9 50.5C291.2 50.7 291.5 50.9 291.7 51.2C292 51.4 292.1 51.8 292.1 52.3ZM288 54.1C288.1 54.1 288.3 54.1 288.5 54.1C288.7 54.1 288.8 54.1 288.9 54.1C289.3 54 289.6 53.8 289.8 53.6C290.1 53.4 290.2 53.1 290.2 52.7C290.2 52.5 290.2 52.3 290.1 52.1C290 51.9 289.9 51.8 289.7 51.7C289.5 51.6 289.4 51.5 289.2 51.5C289 51.5 288.8 51.4 288.6 51.4C288.4 51.4 288.1 51.4 287.9 51.4C287.7 51.4 287.5 51.4 287.4 51.4V53.9H288V54.1ZM288.7 58.3C288.9 58.3 289.2 58.3 289.4 58.2C289.6 58.1 289.8 58.1 290 57.9C290.2 57.8 290.3 57.6 290.4 57.5C290.5 57.3 290.6 57.1 290.6 56.9C290.6 56.6 290.5 56.4 290.4 56.2C290.3 56 290.1 55.9 289.9 55.8C289.7 55.7 289.5 55.6 289.3 55.6C289.1 55.6 288.8 55.6 288.6 55.6H287.6V58.2C287.6 58.2 287.7 58.2 287.8 58.2C287.9 58.2 288 58.2 288.1 58.2C288.2 58.2 288.3 58.2 288.5 58.2C288.5 58.3 288.6 58.3 288.7 58.3Z" fill="#52535A"/>
    <path d="M298.2 55.7001H297.2V59.7001H295.3V50.1001H297.2V54.0001H298.2L300.4 50.1001H302.6L299.8 54.7001L302.9 59.7001H300.6L298.2 55.7001Z" fill="#52535A"/>
    <path d="M310.4 54.6001L310.5 53.4001H310.4L309.9 54.7001L307.2 59.7001H305.4V50.1001H307.3V55.1001L307.2 56.4001L307.8 55.0001L310.6 50.1001H312.3V59.7001H310.4V54.6001Z" fill="#52535A"/>
    <path d="M57.7999 8.8C60.0999 8.8 62 10.7 62 13V23.5H70.8V13.1C70.9 5.9 65 0 57.7999 0H47.2V8.8H57.7999Z" fill="#52535A"/>
    <path d="M62 57.8002C62 60.1002 60.0999 62.0002 57.7999 62.0002H47.2V70.8002H57.7999C65 70.8002 70.9 64.9002 70.9 57.7002V47.2002H62V57.8002Z" fill="#52535A"/>
    <path d="M8.8 13.1C8.8 10.8 10.7 8.9 13 8.9H23.6V0H13.1C5.9 0 0 5.9 0 13.1V23.6H8.8V13.1Z" fill="#52535A"/>
    <path d="M13.1 62.0002C10.8 62.0002 8.9 60.1002 8.9 57.8002V47.2002H0V57.8002C0 65.0002 5.9 70.9002 13.1 70.9002H23.7V62.0002H13.1Z" fill="#52535A"/>
    <path d="M30.3 56.5002L11.4 37.6002L17.7 31.4002L30.3 44.0002L53.2 21.2002L59.4 27.4002L30.3 56.5002Z" fill="#52535A"/>
    <path d="M106.6 47.4001C107.8 48.8001 108.4 50.5001 108.4 52.5001C108.4 54.1001 108 55.7001 107.1 57.0001C106.2 58.4001 104.9 59.5001 103.1 60.4001C101.3 61.3001 99.1 61.7001 96.4 61.7001C94.4 61.7001 92.5 61.5001 90.6 61.0001C88.7 60.5001 87 59.9001 85.6 59.0001L88.4 53.1001C89.5 53.8001 90.7 54.4001 92.1 54.8001C93.5 55.2001 94.8 55.4001 96.1 55.4001C97.4 55.4001 98.5 55.1001 99.3 54.6001C100.1 54.1001 100.5 53.4001 100.5 52.5001C100.5 50.7001 99.1 49.8001 96.3 49.8001H93V44.9001L97.9 39.6001H87V33.6001H107V38.5001L101.3 44.7001C103.6 45.1001 105.4 46.0001 106.6 47.4001Z" fill="#52535A"/>
    <path d="M139 33.5V61.2H131.1V50.4H120.5V61.2H112.6V33.5H120.5V43.9H131.1V33.5H139Z" fill="#52535A"/>
    <path d="M164.2 34.5C166.2 35.5 167.7 37.1 168.8 39C169.9 41 170.4 43.4 170.4 46.2V61.1H162.6V55H151.8V61.1H144.1V46.3C144.1 43.5 144.6 41.1 145.7 39.1C146.8 37.1 148.3 35.6 150.3 34.6C152.3 33.6 154.6 33 157.2 33C159.9 33 162.2 33.5 164.2 34.5ZM162.6 49V45.6C162.6 43.6 162.1 42 161.1 41C160.1 40 158.8 39.5 157.2 39.5C155.5 39.5 154.2 40 153.2 41C152.2 42 151.7 43.6 151.7 45.6V49H162.6Z" fill="#52535A"/>
    <path d="M183.3 48.1V61.2H175.5V33.5H183.3V46.6H183.5L193.2 33.5H202.6L191.9 46.9L202.9 61.2H192.7L183.3 48.1Z" fill="#52535A"/>
    <path d="M99.6 10.6V24.8H94.9V20.2C94 20.5 93.1 20.6 92.3 20.6C90.2 20.6 88.6 20.1 87.5 19.1C86.4 18.1 85.9 16.7 85.9 14.8V10.5H90.6V14.3C90.6 15.2 90.8 15.8 91.2 16.2C91.6 16.6 92.2 16.8 92.9 16.8C93.7 16.8 94.4 16.7 94.9 16.5V10.5H99.6V10.6Z" fill="#52535A"/>
    <path d="M114.8 21.2001V24.8001H102.9V10.6001H114.5V14.2001H107.6V15.9001H113.7V19.3001H107.6V21.2001H114.8Z" fill="#52535A"/>
    <path d="M120.5 24.1998C119.3 23.5998 118.3 22.6998 117.7 21.5998C117 20.4998 116.7 19.1998 116.7 17.6998C116.7 16.2998 117 14.9998 117.7 13.7998C118.4 12.6998 119.3 11.7998 120.5 11.1998C121.7 10.5998 123.1 10.2998 124.6 10.2998C126 10.2998 127.2 10.4998 128.3 10.9998C129.4 11.4998 130.3 12.1998 131 13.0998L128 15.7998C127.1 14.6998 126.1 14.0998 124.9 14.0998C123.9 14.0998 123.1 14.3998 122.5 15.0998C121.9 15.6998 121.6 16.5998 121.6 17.6998C121.6 18.7998 121.9 19.6998 122.5 20.2998C123.1 20.8998 123.9 21.2998 124.9 21.2998C126.1 21.2998 127.1 20.6998 128 19.5998L131 22.2998C130.3 23.1998 129.4 23.8998 128.3 24.3998C127.2 24.8998 126 25.0998 124.6 25.0998C123.1 25.1998 121.7 24.8998 120.5 24.1998Z" fill="#52535A"/>
    <path d="M145.7 14.3001H141.5V24.8001H136.8V14.3001H132.6V10.6001H145.7V14.3001Z" fill="#52535A"/>
    <path d="M161.9 10.6001V24.8001H157.1V19.6001H152.7V24.8001H147.9V10.6001H152.7V15.6001H157.1V10.6001H161.9Z" fill="#52535A"/>
    <path d="M177.1 16.2001C178.1 17.0001 178.5 18.2001 178.5 19.7001C178.5 21.4001 177.9 22.6001 176.9 23.5001C175.8 24.4001 174.3 24.8001 172.4 24.8001H165.3V10.6001H170V15.0001H173C174.7 15.0001 176.1 15.4001 177.1 16.2001ZM173.2 21.0001C173.5 20.7001 173.7 20.3001 173.7 19.7001C173.7 18.7001 173.1 18.3001 172 18.3001H170V21.5001H172C172.5 21.5001 172.9 21.3001 173.2 21.0001ZM179.8 10.6001H184.5V24.8001H179.8V10.6001Z" fill="#52535A"/>
    <path d="M187.9 10.5998H192.6V17.9998L197.5 10.5998H202V24.7998H197.3V17.3998L192.4 24.7998H187.9V10.5998ZM191.5 8.8998C190.8 8.2998 190.5 7.3998 190.5 6.2998H193.7C193.7 6.7998 193.8 7.0998 194 7.2998C194.2 7.4998 194.5 7.5998 195 7.5998C195.5 7.5998 195.8 7.4998 196 7.2998C196.2 7.0998 196.3 6.7998 196.3 6.2998H199.5C199.5 7.4998 199.1 8.2998 198.4 8.8998C197.7 9.4998 196.6 9.7998 195 9.7998C193.4 9.7998 192.2 9.4998 191.5 8.8998Z" fill="#52535A"/>
</svg>
