<svg width="52" height="64" viewBox="0 0 52 64" fill="none" xmlns="http://www.w3.org/2000/svg">
<path d="M50.2 11.6L40.2 1.7C39.1 0.6 37.6 0 36 0H12.7C10.1 0 8 2.1 8 4.7V10H4.7C2.1 10 0 12.1 0 14.7V59.3C0 61.9 2.1 64 4.7 64H39.3C41.9 64 44 61.9 44 59.3V54H47.3C49.9 54 52 51.9 52 49.3V15.9C52 14.3 51.3 12.7 50.2 11.6ZM40 59.3C40 59.7 39.7 60 39.3 60H4.7C4.3 60 4 59.7 4 59.3V14.7C4 14.3 4.3 14 4.7 14H28C28.5 14 29.1 14.2 29.4 14.6L39.4 24.5C39.8 24.9 40 25.4 40 26V59.3ZM48 49.3C48 49.7 47.7 50 47.3 50H44V25.9C44 24.3 43.3 22.7 42.2 21.6L32.2 11.7C31.1 10.6 29.6 10 28 10H12V4.7C12 4.3 12.3 4 12.7 4H36C36.5 4 37.1 4.2 37.4 4.6L47.4 14.5C47.8 14.9 48 15.4 48 16V49.3Z" fill="#434343"/>
<path d="M31.0004 29.2002C30.1004 28.5002 28.9004 28.7002 28.2004 29.6002L18.7004 42.2002L13.2004 38.1002C12.3004 37.4002 11.1004 37.6002 10.4004 38.5002C9.70042 39.4002 9.90042 40.6002 10.8004 41.3002L19.5004 47.8002L31.3004 32.0002C32.0004 31.1002 31.8004 29.9002 31.0004 29.2002Z" fill="#434343"/>
</svg>
