<svg width="64" height="64" viewBox="0 0 64 64" fill="none" xmlns="http://www.w3.org/2000/svg">
<path d="M64 13C64 5.8 58.2 0 51 0C45.6 0 41 3.3 39 8H17C14.8 8 13 9.8 13 12V47H2.8C1.2 47 0 48.2 0 49.8V51C0 58.1 5.9 64 13.1 64H42H42.1C49.3 64 55.1 58.1 55.1 51V25.4C60.2 23.7 64 18.8 64 13ZM13.1 60C8.1 60 4.1 56 4 51H29C29 54.5 30.4 57.7 32.7 60H13.1ZM42 60C37 60 33 55.9 33 50.9V50.4C33 48.5 31.5 47 29.6 47H17V12H38.1C38.1 12.3 38 12.7 38 13C38 14.8 38.4 16.5 39 18H22C20.9 18 20 18.9 20 20C20 21.1 20.9 22 22 22H41.6C44 24.5 47.3 26 51 26V51C51 55.9 47 60 42 60ZM51 22C46 22 42 18 42 13C42 8 46 4 51 4C56 4 60 8 60 13C60 18 56 22 51 22Z" fill="#434343"/>
<path d="M53 11V7C53 5.9 52.1 5 51 5C49.9 5 49 5.9 49 7V11H45C43.9 11 43 11.9 43 13C43 14.1 43.9 15 45 15H49V19C49 20.1 49.9 21 51 21C52.1 21 53 20.1 53 19V15H57C58.1 15 59 14.1 59 13C59 11.9 58.1 11 57 11H53Z" fill="#434343"/>
<path d="M42 39H22C20.9 39 20 39.9 20 41C20 42.1 20.9 43 22 43H42C43.1 43 44 42.1 44 41C44 39.9 43.1 39 42 39Z" fill="#434343"/>
<path d="M22 33H32C33.1 33 34 32.1 34 31C34 29.9 33.1 29 32 29H22C20.9 29 20 29.9 20 31C20 32.1 20.9 33 22 33Z" fill="#434343"/>
<path d="M46 29H40C38.9 29 38 29.9 38 31C38 32.1 38.9 33 40 33H46C47.1 33 48 32.1 48 31C48 29.9 47.1 29 46 29Z" fill="#434343"/>
</svg>
