<svg width="64" height="64" viewBox="0 0 64 64" fill="none" xmlns="http://www.w3.org/2000/svg">
<path d="M55.1 0H8.9C4 0 0 4 0 8.9V29C0 34 4 38 8.9 38H12V60.1C12 62.3 13.8 64 15.9 64H48C50.2 64 51.9 62.2 51.9 60.1V38H55C59.9 38 63.9 34 63.9 29.1V8.9C64 4 60 0 55.1 0ZM16 60.1V25H48L48.1 60L16 60.1ZM60 29.1C60 31.8 57.8 34 55.1 34H52V25H55C56.1 25 57 24.1 57 23C57 21.9 56.1 21 55 21H10C8.9 21 8 21.9 8 23C8 24.1 8.9 25 10 25H12V34H8.9C6.2 34 4 31.8 4 29.1V8.9C4 6.2 6.2 4 8.9 4H55C57.8 4 60 6.2 60 8.9V29.1Z" fill="#434343"/>
<path d="M12 16C13.6569 16 15 14.6569 15 13C15 11.3431 13.6569 10 12 10C10.3431 10 9 11.3431 9 13C9 14.6569 10.3431 16 12 16Z" fill="#434343"/>
<path d="M21 16C22.6569 16 24 14.6569 24 13C24 11.3431 22.6569 10 21 10C19.3431 10 18 11.3431 18 13C18 14.6569 19.3431 16 21 16Z" fill="#434343"/>
<path d="M25 46.7998H21V50.0998C21 52.2998 22.8 53.9998 24.9 53.9998H28.2V49.9998L25 50.0998V46.7998Z" fill="#434343"/>
<path d="M39.0998 49.9998H35.7998V53.9998H39.0998C41.2998 53.9998 42.9998 52.1998 42.9998 50.0998V46.7998H38.9998L39.0998 49.9998Z" fill="#434343"/>
<path d="M39.0998 32H35.7998V36L39.0998 35.9V39.2H43.0998V35.9C42.9998 33.8 41.1998 32 39.0998 32Z" fill="#434343"/>
<path d="M21 35.9V39.2H25L24.9 36H28.2V32H24.9C22.8 32 21 33.8 21 35.9Z" fill="#434343"/>
</svg>
