<svg width="64" height="64" viewBox="0 0 64 64" fill="none" xmlns="http://www.w3.org/2000/svg">
<path d="M32 64C14.4 64 0 49.6 0 32C0 14.4 14.4 0 32 0C49.6 0 64 14.4 64 32C64 49.6 49.6 64 32 64ZM32 4C16.6 4 4 16.6 4 32C4 47.4 16.6 60 32 60C47.4 60 60 47.4 60 32C60 16.6 47.4 4 32 4Z" fill="#434343"/>
<path d="M31.4996 39.5996C29.8996 39.5996 28.7996 37.9996 29.2996 36.4996C29.8996 34.7996 30.8996 33.2996 32.0996 32.0996C34.7996 29.3996 38.1996 27.0996 38.1996 23.4996C38.1996 20.0996 35.5996 18.1996 31.8996 18.1996C28.9996 18.1996 26.8996 19.1996 25.5996 21.1996C24.9996 22.1996 23.5996 22.4996 22.5996 21.8996C21.4996 21.2996 21.0996 19.7996 21.6996 18.7996C23.7996 15.3996 27.5996 13.5996 31.9996 13.5996C34.9996 13.5996 37.5996 14.4996 39.7996 16.0996C41.9996 17.7996 43.0996 20.1996 43.0996 23.1996C43.0996 26.0996 41.5996 28.6996 39.7996 30.4996C37.5996 32.6996 34.7996 34.8996 33.9996 37.6996C33.4996 38.7996 32.5996 39.5996 31.4996 39.5996ZM27.7996 47.2996C27.7996 45.4996 29.2996 43.9996 31.0996 43.9996C32.9996 43.9996 34.3996 45.4996 34.3996 47.2996C34.3996 49.0996 32.9996 50.5996 31.0996 50.5996C29.2996 50.5996 27.7996 49.0996 27.7996 47.2996Z" fill="#434343"/>
</svg>
