<svg width="64" height="64" viewBox="0 0 64 64" fill="none" xmlns="http://www.w3.org/2000/svg">
<path d="M64 13C64 5.8 58.2 0 51 0C46.5 0 42.5 2.3 40.2 5.8C36.9 4.6 33.5 4 30 4C13.5 4 0 17.5 0 34C0 50.5 13.5 64 30 64C46.5 64 60 50.5 60 34C60 30.5 59.4 27.1 58.2 23.8C61.7 21.5 64 17.5 64 13ZM14.9 55.1L20.1 52.9C22.4 51.9 24 49.9 24.4 47.4V47.3C24.9 47.7 25.3 48 25.8 48.3C27.1 49.1 28.7 49.6 30.2 49.6C31.7 49.6 33.3 49.2 34.6 48.3C34.9 48.1 35.2 47.9 35.5 47.7C36 50 37.6 52 39.8 52.9L45 55.1C40.9 58.2 35.6 60 30 60C24.4 60 19.1 58.2 14.9 55.1ZM32.6 45C31.2 45.9 29.4 45.9 28 45C25.1 43.2 21.6 39 21.6 29.6C21.6 27.3 22.5 25.2 24.1 23.6C25.7 22 27.9 21.1 30.1 21.1H30.5C32.8 21.1 34.9 22 36.5 23.6C38.1 25.2 39 27.4 39 29.6C39 39 35.5 43.2 32.6 45ZM56 34C56 41.1 53.1 47.5 48.5 52.2L41.4 49.2C40.4 48.8 39.6 47.9 39.5 46.8L39.1 44.2C41.3 41.1 43 36.5 43 29.5C43 26.1 41.7 23 39.3 20.6C37 18.3 33.8 17 30.5 17H30C26.7 17 23.5 18.3 21.1 20.7C18.7 23.1 17.4 26.2 17.4 29.6C17.4 36.2 18.9 40.6 21 43.7L20.5 46.9C20.3 48 19.6 48.9 18.6 49.3L11.5 52.3C6.9 47.5 4 41.1 4 34C4 19.7 15.7 8 30 8C32.9 8 35.8 8.5 38.5 9.4C38.2 10.6 38 11.8 38 13C38 20.2 43.8 26 51 26C52.2 26 53.4 25.8 54.6 25.5C55.5 28.2 56 31.1 56 34ZM51 22C46 22 42 18 42 13C42 8 46 4 51 4C56 4 60 8 60 13C60 18 56 22 51 22Z" fill="#434343"/>
<path d="M53 11V7C53 5.9 52.1 5 51 5C49.9 5 49 5.9 49 7V11H45C43.9 11 43 11.9 43 13C43 14.1 43.9 15 45 15H49V19C49 20.1 49.9 21 51 21C52.1 21 53 20.1 53 19V15H57C58.1 15 59 14.1 59 13C59 11.9 58.1 11 57 11H53Z" fill="#434343"/>
</svg>
