<svg width="16" height="16" viewBox="0 0 16 16" fill="none" xmlns="http://www.w3.org/2000/svg">
    <path fill-rule="evenodd" clip-rule="evenodd" d="M13 13.0007L13 11.0007L10.414 11.0007L11.707 9.70773C12.098 9.31673 12.098 8.68473 11.707 8.29373C11.5196 8.1063 11.2768 8.00872 11.0317 8.00098L10.9683 8.00098C10.7232 8.00872 10.4804 8.1063 10.293 8.29373L7.293 11.2937C7.1032 11.4835 7.00554 11.7301 7 11.9783L7 12.0231C7.00554 12.2713 7.1032 12.5179 7.293 12.7077L10.293 15.7077C10.4885 15.9032 10.7442 16.0009 10.9999 16.001C11 16.001 11 16.001 11.0001 16.001C11.2558 16.0009 11.5115 15.9032 11.707 15.7077C12.098 15.3167 12.098 14.6847 11.707 14.2937L10.414 13.0007L13 13.0007Z" fill="#434244"/>
    <path fill-rule="evenodd" clip-rule="evenodd" d="M5 11L5 13C5.553 13 6 12.552 6 12C6 11.4482 5.55327 11.0003 5.00049 11C5.00033 11 5.00016 11 5 11Z" fill="#434244"/>
    <path fill-rule="evenodd" clip-rule="evenodd" d="M5 13.0002H3C1.346 13.0002 0 11.6543 0 10.0002V6.00025C0 4.34625 1.346 3.00025 3 3.00025H7.586L6.293 1.70725C5.902 1.31625 5.902 0.68425 6.293 0.29325C6.684 -0.09775 7.316 -0.09775 7.707 0.29325L10.707 3.29325C11.098 3.68425 11.098 4.31625 10.707 4.70725L7.707 7.70725C7.316 8.09825 6.684 8.09825 6.293 7.70725C5.902 7.31625 5.902 6.68425 6.293 6.29325L7.586 5.00025H3C2.448 5.00025 2 5.44925 2 6.00025V10.0002C2 10.5512 2.448 11.0002 3 11.0002H5V13.0002ZM10 13.0002H13C14.654 13.0002 16 11.6543 16 10.0002V6.00025C16 4.34625 14.654 3.00025 13 3.00025C12.447 3.00025 12 3.44825 12 4.00025C12 4.55225 12.447 5.00025 13 5.00025C13.552 5.00025 14 5.44925 14 6.00025V10.0002C14 10.5512 13.552 11.0002 13 11.0002H10V13.0002Z" fill="#434244"/>
</svg>
