<svg width="16" height="16" viewBox="0 0 16 16" fill="none" xmlns="http://www.w3.org/2000/svg">
    <path d="M15 5H5C4.4 5 4 4.6 4 4C4 3.4 4.4 3 5 3H15C15.6 3 16 3.4 16 4C16 4.6 15.6 5 15 5Z" fill="#434244"/>
    <path d="M15 9H5C4.4 9 4 8.6 4 8C4 7.4 4.4 7 5 7H15C15.6 7 16 7.4 16 8C16 8.6 15.6 9 15 9Z" fill="#434244"/>
    <path d="M15 13H5C4.4 13 4 12.6 4 12C4 11.4 4.4 11 5 11H15C15.6 11 16 11.4 16 12C16 12.6 15.6 13 15 13Z" fill="#434244"/>
    <path d="M1 5C1.55228 5 2 4.55228 2 4C2 3.44772 1.55228 3 1 3C0.447715 3 0 3.44772 0 4C0 4.55228 0.447715 5 1 5Z" fill="#434244"/>
    <path d="M1 9C1.55228 9 2 8.55228 2 8C2 7.44772 1.55228 7 1 7C0.447715 7 0 7.44772 0 8C0 8.55228 0.447715 9 1 9Z" fill="#434244"/>
    <path d="M1 13C1.55228 13 2 12.5523 2 12C2 11.4477 1.55228 11 1 11C0.447715 11 0 11.4477 0 12C0 12.5523 0.447715 13 1 13Z" fill="#434244"/>
</svg>
