<svg width="200" height="52" viewBox="0 0 200 52" fill="none" xmlns="http://www.w3.org/2000/svg">
  <rect width="200" height="52" rx="3" fill="#F8EC31"/>
  <path d="M3.85809 3.24301C4.6968 3.24301 5.42368 3.91398 5.42368 4.80861V8.66667H8.66671V4.80861C8.66671 2.18065 6.54197 0 3.85809 0H0V3.24301H3.85809Z" transform="translate(53.3335 13)" fill="#434244"/>
  <path d="M5.42368 3.91398C5.42368 4.75269 4.75271 5.47958 3.85809 5.47958H0V8.72259H3.85809C6.48606 8.72259 8.66671 6.59786 8.66671 3.91398V0H5.42368V3.91398Z" transform="translate(53.3335 30.2774)" fill="#434244"/>
  <path d="M3.24303 4.80861C3.24303 3.91398 3.914 3.24301 4.80863 3.24301H8.66671V0H4.80863C2.12474 0 0 2.12473 0 4.80861V8.66667H3.24303V4.80861Z" transform="translate(36 13)" fill="#434244"/>
  <path d="M4.80863 5.47958C3.96991 5.47958 3.24303 4.80861 3.24303 3.91398V0H0V3.91398C0 6.54194 2.12474 8.72259 4.80863 8.72259H8.66671V5.47958H4.80863Z" transform="translate(36 30.2774)" fill="#434244"/>
  <path d="M6.93337 12.9161L0 6.03872L2.29249 3.74624L6.93337 8.3871L15.3205 0L17.613 2.29248L6.93337 12.9161Z" transform="translate(40.1938 20.7721)" fill="#434244"/>
  <path d="M2.97513 3.45794H1.17202V5.88785H0V0H1.08187V2.42991H2.88497V0H3.96684V5.88785H2.97513V3.45794Z" transform="translate(76.0898 13.0935)" fill="#434244"/>
  <path d="M1.80311 3.73832H3.06528L2.4342 1.68224H2.34404L1.80311 3.73832ZM3.2456 4.57944H1.53264L1.08187 5.88785H0L1.80311 0H2.88497L4.68808 5.88785H3.60622L3.2456 4.57944Z" transform="translate(81.3193 13.0935)" fill="#434244"/>
  <path d="M4.50777 7.1028H3.51606V5.88785H0V0H1.08187V4.85981H2.61451V0H3.69637V4.85981H4.41762V7.1028H4.50777Z" transform="translate(87.2695 13.0935)" fill="#434244"/>
  <path d="M2.88497 2.80374L2.97513 2.05607L2.61451 2.80374L0.99171 5.88785H0V0H1.08187V3.08411L0.99171 3.83178H1.08187L1.44249 2.99065L3.06529 0H4.05699V5.88785H2.88497V2.80374Z" transform="translate(92.9492 13.0935)" fill="#434244"/>
  <path d="M1.17202 3.08411C1.17202 3.36449 1.17202 3.64486 1.17202 3.92523C1.17202 4.20561 1.26218 4.39252 1.35233 4.57944C1.44249 4.76636 1.53264 4.95327 1.6228 5.04673C1.71295 5.14019 1.89327 5.23364 2.16373 5.23364C2.34404 5.23364 2.52435 5.23364 2.61451 5.14019C2.70466 5.04673 2.88497 4.95327 2.88497 4.76636C2.97513 4.57944 2.97513 4.39252 3.06529 4.11215C3.06529 3.83178 3.15544 3.5514 3.15544 3.17757C3.15544 2.8972 3.15544 2.61682 3.15544 2.42991C3.15544 2.14953 3.06529 1.96262 3.06529 1.7757C2.97513 1.58879 2.88497 1.40187 2.79482 1.30841C2.70466 1.21495 2.52435 1.1215 2.25389 1.1215C1.89326 1.1215 1.6228 1.30841 1.44249 1.68224C1.26218 1.86916 1.17202 2.42991 1.17202 3.08411ZM0 3.08411C0 2.61682 3.42572e-07 2.14953 0.0901558 1.7757C0.180311 1.40187 0.270466 1.02804 0.450777 0.841121C0.631088 0.560748 0.8114 0.373832 1.08187 0.280374C1.53264 0.093458 1.80311 0 2.16373 0C2.52435 0 2.88497 0.093458 3.15544 0.186916C3.42591 0.373832 3.60622 0.560748 3.78653 0.841121C3.96684 1.1215 4.057 1.40187 4.14715 1.7757C4.23731 2.14953 4.23731 2.52336 4.23731 2.99065C4.23731 3.92523 4.057 4.6729 3.69637 5.23364C3.33575 5.79439 2.79482 6.07477 2.07358 6.07477C1.71295 6.07477 1.35233 5.98131 1.08187 5.88785C0.8114 5.70093 0.631088 5.51402 0.450777 5.23364C0.360622 5.04673 0.180312 4.6729 0.180312 4.29907C0.0901561 3.92523 0 3.5514 0 3.08411Z" transform="translate(98.3584 13)" fill="#434244"/>
  <path d="M2.88497 3.45794H1.08187V5.88785H0V0H1.08187V2.42991H2.88497V0H3.96684V5.88785H2.88497V3.45794Z" transform="translate(104.129 13.0935)" fill="#434244"/>
  <path d="M1.71295 3.73832H2.97513L2.4342 1.7757H2.34404L1.71295 3.73832ZM3.15544 4.57944H1.44249L1.08187 5.88785H0L1.80311 0H2.88497L4.68808 5.88785H3.60622L3.15544 4.57944Z" transform="translate(109.357 13.0935)" fill="#434244"/>
  <path d="M3.42591 0.934579H2.34404C2.34404 1.49533 2.25389 1.96262 2.25389 2.42991C2.25389 2.8972 2.16373 3.27103 2.16373 3.64486C2.07358 4.01869 2.07358 4.29907 1.98342 4.57944C1.89326 4.85981 1.80311 5.04673 1.71295 5.23365C1.53264 5.51402 1.35233 5.70094 1.17202 5.79439C0.991709 5.88785 0.811401 5.98131 0.540935 5.98131C0.450779 5.98131 0.270467 5.98131 0.180312 5.98131C0.0901561 5.98131 0 5.88785 0 5.88785L0.0901575 4.85981H0.180312H0.270466C0.360621 4.85981 0.450779 4.85981 0.540935 4.76636C0.63109 4.76636 0.721245 4.6729 0.8114 4.57944C0.901556 4.48598 0.991712 4.29907 0.991712 4.01869C1.08187 3.73832 1.08187 3.45794 1.08187 3.08411C1.08187 2.71028 1.17202 2.24299 1.17202 1.7757C1.17202 1.30841 1.17202 0.654206 1.26218 0H4.41762V5.88785H3.33575V0.934579H3.42591Z" transform="translate(115.037 13.1868)" fill="#434244"/>
  <path d="M1.89326 4.95327C2.07357 4.95327 2.16373 4.95327 2.34404 4.85981C2.52435 4.85981 2.61451 4.76636 2.70466 4.6729C2.70466 4.6729 2.79482 4.57944 2.88497 4.48598C2.97513 4.39252 2.97513 4.20561 2.97513 4.01869C2.97513 3.83178 2.97513 3.64486 2.88497 3.5514C2.79482 3.45794 2.70466 3.36449 2.61451 3.27103C2.52435 3.17757 2.4342 3.17757 2.25389 3.17757C2.16373 3.17757 1.98342 3.17757 1.80311 3.17757C1.80311 3.17757 1.71295 3.17757 1.6228 3.17757C1.53264 3.17757 1.53264 3.17757 1.44249 3.17757C1.35233 3.17757 1.35233 3.17757 1.26217 3.17757C1.17202 3.17757 1.17202 3.17757 1.17202 3.17757V4.95327C1.26218 4.95327 1.35233 4.95327 1.44249 4.95327C1.6228 4.95327 1.71295 4.95327 1.89326 4.95327ZM0.180308 0H1.26217V2.14953H1.35233C1.44249 2.14953 1.44248 2.14953 1.53264 2.14953C1.6228 2.14953 1.71295 2.14953 1.71295 2.14953C1.80311 2.14953 1.89326 2.14953 1.89326 2.14953C2.16373 2.14953 2.4342 2.14953 2.70466 2.24299C2.97513 2.33645 3.15544 2.42991 3.33575 2.52336C3.51606 2.71028 3.69637 2.8972 3.78653 3.08411C3.87668 3.36449 3.96684 3.64486 3.96684 4.01869C3.96684 4.6729 3.78653 5.23364 3.33575 5.51402C2.97513 5.88785 2.34404 6.07477 1.6228 6.07477C1.53264 6.07477 1.44249 6.07477 1.35233 6.07477C1.26218 6.07477 1.08187 6.07477 0.901554 6.07477C0.721244 6.07477 0.631088 6.07477 0.450777 6.07477C0.270466 6.07477 0.180311 6.07477 0 5.98131V0H0.180308Z" transform="translate(120.988 13.0935)" fill="#434244"/>
  <path d="M2.97513 3.45794H1.17202V5.88785H0V0H1.08187V2.42991H2.88497V0H3.96684V5.88785H2.88497V3.45794H2.97513Z" transform="translate(126.487 13.0935)" fill="#434244"/>
  <path d="M1.71295 3.73832H2.97513L2.4342 1.7757H2.34404L1.71295 3.73832ZM3.15544 4.57944H1.44249L1.08187 5.88785H0L1.80311 0H2.88497L4.68808 5.88785H3.51606L3.15544 4.57944Z" transform="translate(131.716 13.0935)" fill="#434244"/>
  <path d="M3.06529 1.1215C2.97513 1.1215 2.97513 1.1215 2.88497 1.1215C2.79482 1.1215 2.70466 1.1215 2.61451 1.1215C2.52435 1.1215 2.34404 1.1215 2.25389 1.21495C2.16373 1.21495 1.98342 1.30841 1.89326 1.40187C1.80311 1.49533 1.71295 1.58879 1.62279 1.68224C1.53264 1.7757 1.53264 1.96262 1.53264 2.05607C1.53264 2.24299 1.53264 2.33645 1.62279 2.42991C1.71295 2.52336 1.71295 2.61682 1.80311 2.71028C1.98342 2.80374 2.07358 2.80374 2.25389 2.8972C2.4342 2.8972 2.52435 2.99065 2.70466 2.99065H3.06529V1.1215ZM4.14715 5.98131H3.06529V3.83178H2.52435L1.26218 6.07477H0L1.44249 3.64486C1.35233 3.5514 1.17202 3.5514 1.08186 3.45794C0.991707 3.36449 0.811395 3.27103 0.721239 3.08411C0.631084 2.8972 0.540933 2.80374 0.450777 2.61682C0.360622 2.42991 0.360623 2.24299 0.360623 1.96262C0.360623 1.58879 0.450774 1.30841 0.631085 1.02804C0.811396 0.747664 0.991711 0.560748 1.26218 0.373832C1.44249 0.280374 1.71295 0.186916 1.98342 0.093458C2.25388 0.093458 2.52435 0 2.79482 0C2.88497 0 2.97513 0 3.15544 0C3.2456 0 3.42591 0 3.51606 0C3.60622 0 3.78652 0 3.87668 0C3.96684 0 4.14715 0 4.2373 0.093458V5.98131H4.14715Z" transform="translate(137.667 13)" fill="#434244"/>
  <path d="M3.2456 4.01869H4.14715V5.70093C3.96684 5.79439 3.78653 5.88785 3.51606 5.98131C3.2456 6.07477 2.97513 6.07477 2.70466 6.07477C2.34404 6.07477 1.98342 5.98131 1.71295 5.88785C1.35233 5.79439 1.08187 5.60748 0.901554 5.3271C0.631088 5.04673 0.450777 4.76636 0.270466 4.39252C0.0901554 4.11215 0 3.64486 0 3.08411C0 2.52336 0.0901554 2.05607 0.270466 1.58878C0.450777 1.21495 0.631088 0.841121 0.901554 0.654205C1.17202 0.373832 1.44249 0.280374 1.80311 0.186916C2.16373 0.0934578 2.4342 0 2.70466 0C3.06528 0 3.33575 -5.36163e-07 3.51606 0.0934574C3.69637 0.186915 3.96684 0.186916 4.05699 0.280374V2.05607H3.15544V1.1215C2.97513 1.1215 2.79482 1.1215 2.61451 1.1215C2.4342 1.1215 2.16373 1.1215 1.98342 1.21495C1.80311 1.30841 1.6228 1.40187 1.53264 1.58878C1.35233 1.7757 1.26218 1.96262 1.17202 2.24299C1.08187 2.52336 1.08187 2.80374 1.08187 3.17757C1.08187 3.45794 1.08187 3.73832 1.17202 4.01869C1.26218 4.29907 1.35233 4.48598 1.44249 4.6729C1.6228 4.85981 1.71295 4.95327 1.98342 5.04673C2.16373 5.14019 2.4342 5.23364 2.61451 5.23364C2.79482 5.23364 2.97513 5.23364 3.15544 5.14019V4.01869H3.2456Z" transform="translate(76 22.9626)" fill="#434244"/>
  <path d="M2.97513 2.80374L3.06528 2.05608L2.70466 2.80374L1.08187 5.88785H0V0H1.08187V3.08411L0.99171 3.83178H1.08187L1.44249 2.99065L3.06528 0H4.05699V5.88785H2.97513V2.80374Z" transform="translate(81.6797 23.0559)" fill="#434244"/>
  <path d="M3.15544 4.11215H4.05699V5.79439C3.87668 5.88785 3.69637 5.98131 3.42591 6.07477C3.15544 6.16823 2.88497 6.16822 2.61451 6.16822C2.25389 6.16822 1.89326 6.07477 1.6228 5.98131C1.26218 5.88785 0.99171 5.70093 0.811399 5.42056C0.540932 5.14019 0.360622 4.85981 0.180311 4.48598C-1.74645e-07 4.11215 0 3.64486 0 3.08411C0 2.52336 0.0901556 2.05607 0.270467 1.58878C0.450777 1.21495 0.631088 0.841121 0.901554 0.654205C1.17202 0.373832 1.44249 0.280374 1.80311 0.186916C2.16373 0.0934578 2.4342 0 2.70466 0C3.06528 0 3.33575 3.55121e-07 3.51606 0.0934583C3.69637 0.186916 3.96684 0.186916 4.05699 0.280374V2.14953H3.15544V1.21495C2.97513 1.21495 2.79482 1.21495 2.61451 1.21495C2.4342 1.21495 2.16373 1.21495 1.98342 1.30841C1.80311 1.40187 1.6228 1.49533 1.53264 1.68224C1.35233 1.86916 1.26218 2.05607 1.17202 2.33645C1.08187 2.61682 1.08187 2.8972 1.08187 3.27103C1.08187 3.5514 1.08187 3.83178 1.17202 4.11215C1.26218 4.39252 1.35233 4.57944 1.44249 4.76635C1.6228 4.95327 1.71295 5.04673 1.98342 5.14019C2.16373 5.23365 2.4342 5.3271 2.61451 5.3271C2.79482 5.3271 2.97513 5.3271 3.15544 5.23364V4.11215Z" transform="translate(87.2695 22.8691)" fill="#434244"/>
  <path d="M0.811399 4.95327H1.71295V0.934579H0.901554V1.96262H0V0H4.41762V1.96262H3.51606V0.934579H2.70466V4.95327H3.60622V5.88785H0.631087V4.95327H0.811399Z" transform="translate(92.4082 23.0559)" fill="#434244"/>
  <path d="M0 0H3.69637V1.02804H1.08186V2.42991H3.51606V3.45794H1.08186V4.85981H3.78653V5.88785H0V0Z" transform="translate(98.2686 23.0559)" fill="#434244"/>
  <path d="M3.06528 2.71028V1.7757L2.16373 3.36449H1.98342L0.99171 1.7757L1.08186 2.61682V5.88785H0V0H1.17202L2.16373 1.68224L3.15544 0H4.2373V5.88785H3.06528V2.71028Z" transform="translate(103.587 23.1494)" fill="#434244"/>
  <path d="M1.80311 3.64486H3.06529L2.52435 1.68224H2.4342L1.80311 3.64486ZM3.15544 4.57944H1.44249L1.08187 5.88785H0L1.80311 0H2.88497L4.68808 5.88785H3.51606L3.15544 4.57944Z" transform="translate(108.906 23.0559)" fill="#434244"/>
  <path d="M4.50777 7.00935H3.51606V5.88785H0V0H1.08187V4.85981H2.61451V0H3.69638V4.85981H4.41762V7.00935H4.50777Z" transform="translate(117.742 23.0559)" fill="#434244"/>
  <path d="M2.88497 2.80374L2.97513 2.05608L2.61451 2.80374L0.991709 5.88785H0V0H1.08187V3.08411L0.991709 3.83178H1.08187L1.44249 2.99065L3.06529 0H4.05699V5.88785H2.97513V2.80374H2.88497Z" transform="translate(123.782 23.0559)" fill="#434244"/>
  <path d="M2.79482 4.6729C2.88497 4.6729 3.06528 4.57944 3.15544 4.57944C3.2456 4.48598 3.33575 4.48598 3.42591 4.29907C3.51606 4.20561 3.51606 4.01869 3.60622 3.83178C3.60622 3.64486 3.69637 3.36449 3.69637 3.08411C3.69637 2.61682 3.60622 2.24299 3.51606 1.96262C3.4259 1.7757 3.15544 1.58878 2.88497 1.58878V4.6729H2.79482ZM1.89326 1.58878C1.6228 1.58878 1.35233 1.7757 1.26217 1.96262C1.17202 2.14953 1.08187 2.52336 1.08187 3.08411C1.08187 3.36449 1.08186 3.64486 1.17202 3.83178C1.17202 4.01869 1.26218 4.20561 1.35233 4.29907C1.44249 4.39252 1.53264 4.48598 1.6228 4.57944C1.71295 4.6729 1.80311 4.6729 1.98342 4.6729V1.58878H1.89326ZM1.80311 0H2.88497V0.654206C3.15544 0.654206 3.33575 0.747664 3.60622 0.747664C3.78653 0.841122 4.057 0.934579 4.23731 1.1215C4.41762 1.30841 4.59793 1.49533 4.68808 1.86916C4.77824 2.14953 4.86839 2.52336 4.86839 2.99065C4.86839 3.45794 4.77824 3.83178 4.68808 4.11215C4.59793 4.39252 4.41762 4.6729 4.32746 4.85981C4.14715 5.04673 3.96684 5.23364 3.69637 5.3271C3.42591 5.42056 3.24559 5.42056 2.97513 5.51402V6.26168H1.89326V5.51402C1.6228 5.51402 1.35233 5.42056 1.17202 5.3271C0.991709 5.23364 0.721242 5.14019 0.540931 4.85981C0.36062 4.6729 0.270467 4.39252 0.180312 4.11215C0.0901561 3.83178 0 3.45794 0 2.99065C0 2.52336 0.0901561 2.14953 0.180312 1.86916C0.270467 1.58879 0.450778 1.30841 0.631089 1.1215C0.8114 0.934579 0.991708 0.841122 1.26217 0.747664C1.44248 0.654206 1.71295 0.654206 1.98342 0.560748V0H1.80311Z" transform="translate(129.372 22.8691)" fill="#434244"/>
  <path d="M1.62279 0.934579C1.53264 0.934579 1.44249 0.934579 1.35233 0.934579C1.26218 0.934579 1.17202 0.934579 1.08186 0.934579V2.80374H1.17202C1.17202 2.80374 1.26218 2.80374 1.35233 2.80374C1.44249 2.80374 1.44248 2.80374 1.53264 2.80374C1.71295 2.80374 1.80311 2.80374 1.98342 2.80374C2.16373 2.80374 2.25388 2.71028 2.34404 2.61682C2.4342 2.52336 2.52435 2.42991 2.6145 2.33645C2.70466 2.24299 2.70466 2.05608 2.70466 1.7757C2.70466 1.58879 2.70466 1.40187 2.6145 1.30841C2.52435 1.21495 2.4342 1.1215 2.34404 1.02804C2.25388 0.93458 2.07357 0.93458 1.98342 0.841122C1.89326 0.93458 1.8031 0.934579 1.62279 0.934579ZM0 0.0934583C0.270466 0.0934583 0.450773 0 0.721239 0C0.991706 0 1.26217 0 1.53264 0C1.80311 0 2.07357 3.55121e-07 2.34404 0.0934583C2.61451 0.186916 2.88497 0.280374 3.15544 0.373832C3.42591 0.560748 3.60622 0.747664 3.69637 0.934579C3.87668 1.21495 3.87668 1.49533 3.87668 1.96262C3.87668 2.33645 3.78653 2.61682 3.69637 2.8972C3.60622 3.17757 3.42591 3.36449 3.15544 3.5514C2.97513 3.73832 2.70466 3.83178 2.43419 3.92523C2.16373 4.01869 1.89326 4.01869 1.62279 4.01869H1.53264C1.44248 4.01869 1.44249 4.01869 1.35233 4.01869C1.26218 4.01869 1.26217 4.01869 1.17202 4.01869C1.08186 4.01869 1.08186 4.01869 1.08186 4.01869V6.07477H0V0.0934583Z" transform="translate(135.772 23.0559)" fill="#434244"/>
  <path d="M1.17202 2.99065C1.17202 3.27103 1.17202 3.5514 1.17202 3.83178C1.17202 4.11215 1.26218 4.29907 1.35233 4.48598C1.44249 4.6729 1.53264 4.85981 1.62279 4.95327C1.71295 5.04673 1.89327 5.14019 2.16373 5.14019C2.34404 5.14019 2.52435 5.14019 2.61451 5.04673C2.70466 4.95327 2.79482 4.85981 2.88497 4.6729C2.97513 4.48598 2.97513 4.29907 3.06529 4.01869C3.06529 3.73832 3.06529 3.45795 3.06529 3.08411C3.06529 2.80374 3.06529 2.52336 3.06529 2.33645C3.06529 2.05607 2.97513 1.86916 2.97513 1.68224C2.88497 1.49533 2.79482 1.30841 2.70466 1.21495C2.61451 1.1215 2.4342 1.02804 2.16373 1.02804C1.80311 1.02804 1.53264 1.21495 1.35233 1.58879C1.26218 1.7757 1.17202 2.24299 1.17202 2.99065ZM0 2.99065C0 2.52337 -1.37701e-06 2.05608 0.0901541 1.68224C0.18031 1.30841 0.270466 0.93458 0.450777 0.747664C0.631088 0.46729 0.811396 0.280375 1.08186 0.186917C1.35233 7.10242e-07 1.62279 0 2.07357 0C2.43419 0 2.79482 0.0934587 3.06529 0.186917C3.33575 0.373832 3.51606 0.560748 3.69637 0.841122C3.87668 1.1215 3.96684 1.40187 4.05699 1.7757C4.14715 2.14953 4.14715 2.52337 4.14715 2.99065C4.14715 3.92523 3.96684 4.6729 3.60622 5.23365C3.2456 5.79439 2.70466 6.07477 1.98342 6.07477C1.6228 6.07477 1.26217 5.98131 0.991709 5.88785C0.721242 5.70094 0.450779 5.51402 0.360623 5.23365C0.180312 4.95327 0.0901554 4.6729 0 4.29907C0 3.83178 0 3.36449 0 2.99065Z" transform="translate(141.272 23.0559)" fill="#434244"/>
  <path d="M1.89326 5.04673C1.98342 5.04673 2.16373 5.04673 2.25389 4.95327C2.34404 4.95327 2.52435 4.85981 2.61451 4.76636C2.70466 4.6729 2.79482 4.57944 2.88497 4.48598C2.97513 4.39252 2.97513 4.29907 2.97513 4.11215C2.97513 3.92523 2.97513 3.73832 2.88497 3.64486C2.79482 3.5514 2.70466 3.45794 2.61451 3.36449C2.52435 3.27103 2.34404 3.27103 2.25389 3.27103C2.07358 3.27103 1.98342 3.27103 1.80311 3.27103H1.17202V4.85981H1.26218C1.35233 4.85981 1.35233 4.85981 1.44249 4.85981C1.53264 4.85981 1.6228 4.85981 1.6228 4.85981C1.80311 5.04673 1.80311 5.04673 1.89326 5.04673ZM1.53264 2.52337C1.6228 2.52337 1.71295 2.52337 1.80311 2.52337C1.89326 2.52337 1.98342 2.52337 2.07358 2.52337C2.25389 2.42991 2.4342 2.33645 2.61451 2.24299C2.79482 2.14953 2.88497 1.96262 2.88497 1.68224C2.88497 1.49533 2.88497 1.40187 2.79482 1.30841C2.70466 1.21495 2.70466 1.1215 2.61451 1.1215C2.52435 1.02804 2.4342 1.02804 2.34404 1.02804C2.25388 1.02804 2.07357 1.02804 1.98342 1.02804C1.80311 1.02804 1.71296 1.02804 1.6228 1.02804C1.53265 1.02804 1.44249 1.02804 1.35233 1.02804V2.61682H1.53264V2.52337ZM3.96684 1.40187C3.96684 1.58879 3.96684 1.68224 3.87669 1.86916C3.87669 2.05607 3.78653 2.14953 3.69637 2.24299C3.60622 2.33645 3.51606 2.42991 3.33575 2.52337C3.24559 2.61682 3.06528 2.71028 2.88497 2.71028V2.80374C3.06528 2.80374 3.24559 2.8972 3.33575 2.99066C3.51606 3.08411 3.60622 3.17757 3.69637 3.27103C3.78653 3.36449 3.87669 3.5514 3.96684 3.73832C4.057 3.92523 4.05699 4.11215 4.05699 4.29907C4.05699 4.57944 3.96684 4.85981 3.87669 5.04673C3.78653 5.23364 3.60622 5.42056 3.33575 5.60748C3.15544 5.79439 2.88498 5.88785 2.61451 5.88785C2.34404 5.98131 2.07358 5.98131 1.80311 5.98131H1.44249C1.26217 5.98131 1.17202 5.98131 0.991709 5.98131C0.811398 5.98131 0.631088 5.98131 0.450777 5.98131C0.270466 5.98131 0.0901554 5.98131 0 5.88785V0.0934583C0.0901554 0.0934583 0.180312 0.093458 0.360623 0C0.450779 0 0.631089 0 0.8114 0C0.991711 0 1.08187 0 1.26218 0C1.44249 0 1.6228 0 1.71295 0C1.98342 0 2.25389 3.55121e-07 2.52436 0.0934583C2.79482 0.0934583 2.97513 0.186916 3.15544 0.280374C3.33575 0.373832 3.51606 0.560748 3.60622 0.747664C3.87668 0.841122 3.96684 1.1215 3.96684 1.40187Z" transform="translate(147.223 23.0559)" fill="#434244"/>
  <path d="M1.17202 2.99065C1.17202 3.27103 1.17202 3.5514 1.17202 3.83178C1.17202 4.11215 1.26218 4.29907 1.35233 4.48598C1.44249 4.6729 1.53264 4.85981 1.62279 4.95327C1.71295 5.04673 1.89326 5.14019 2.16373 5.14019C2.34404 5.14019 2.52435 5.14019 2.6145 5.04673C2.70466 4.95327 2.88497 4.85981 2.88497 4.6729C2.97513 4.48598 2.97512 4.29907 3.06528 4.01869C3.06528 3.73832 3.06528 3.45795 3.06528 3.08411C3.06528 2.80374 3.06528 2.52336 3.06528 2.33645C3.06528 2.05607 2.97513 1.86916 2.97513 1.68224C2.88497 1.49533 2.79482 1.30841 2.70466 1.21495C2.61451 1.1215 2.43419 1.02804 2.16373 1.02804C1.8031 1.02804 1.53264 1.21495 1.35233 1.58879C1.26218 1.7757 1.17202 2.24299 1.17202 2.99065ZM0 2.99065C0 2.52337 -1.37701e-06 2.05608 0.0901541 1.68224C0.18031 1.30841 0.270466 0.93458 0.450777 0.747664C0.631088 0.46729 0.811396 0.280375 1.08186 0.186917C1.35233 7.10242e-07 1.62279 0 2.07357 0C2.43419 0 2.79481 0.0934587 3.06528 0.186917C3.33575 0.373832 3.51606 0.560748 3.69637 0.841122C3.87668 1.1215 3.96684 1.40187 4.05699 1.7757C4.14715 2.14953 4.14715 2.52337 4.14715 2.99065C4.14715 3.92523 3.96684 4.6729 3.60622 5.23365C3.2456 5.79439 2.70466 6.07477 1.98342 6.07477C1.6228 6.07477 1.26217 5.98131 0.991709 5.88785C0.721242 5.70094 0.450772 5.51402 0.360616 5.23365C0.180305 4.95327 0.0901554 4.6729 0 4.29907C0.0901554 3.83178 0 3.36449 0 2.99065Z" transform="translate(152.902 23.0559)" fill="#434244"/>
  <path d="M1.53264 0C1.53264 0.186916 1.6228 0.280374 1.71295 0.373832C1.80311 0.46729 1.98342 0.46729 2.16373 0.46729C2.52435 0.46729 2.70466 0.280374 2.79482 0L3.69637 0.186916C3.60622 0.560748 3.51606 0.841122 3.24559 0.934579C2.97513 1.1215 2.61451 1.21495 2.16373 1.21495C1.98342 1.21495 1.71295 1.21495 1.53264 1.1215C1.35233 1.1215 1.17202 1.02804 1.08186 0.934579C0.901552 0.841122 0.811402 0.747663 0.721246 0.654206C0.631091 0.560748 0.540931 0.373832 0.540931 0.186916L1.53264 0ZM2.97513 4.39252L3.06529 3.64486L2.70466 4.39252L1.08186 7.47664H0V1.58878H1.08186V4.6729L0.991709 5.42056H1.08186L1.44249 4.57944L3.06529 1.58878H4.05699V7.47664H2.97513V4.39252Z" transform="translate(158.943 21.4673)" fill="#434244"/>
  <path d="M3.15544 2.71028V1.7757H3.06529L2.16373 3.36448H1.98342L0.99171 1.7757L1.08187 2.61682V5.88785H0V0H1.17202L2.16373 1.68224L3.15544 0H4.23731V5.88785H3.15544V2.71028Z" transform="translate(76 33.0186)" fill="#434244"/>
  <path d="M1.80311 3.64486H3.06528L2.4342 1.68224H2.34404L1.80311 3.64486ZM3.2456 4.57944H1.53264L1.08187 5.88785H0L1.80311 0H2.88497L4.68808 5.88785H3.51606L3.2456 4.57944Z" transform="translate(81.6797 33.0186)" fill="#434244"/>
  <path d="M1.6228 0.934579C1.53264 0.934579 1.44249 0.934579 1.35233 0.934579C1.26218 0.934579 1.17202 0.934579 1.08187 0.934579V2.80374H1.17202C1.17202 2.80374 1.26218 2.80374 1.35233 2.80374C1.44249 2.80374 1.44249 2.80374 1.53264 2.80374H1.6228C1.80311 2.80374 1.89326 2.80374 2.07358 2.80374C2.25389 2.80374 2.34404 2.71028 2.4342 2.61682C2.52435 2.52336 2.61451 2.42991 2.70466 2.33645C2.79482 2.24299 2.79482 2.05607 2.79482 1.7757C2.79482 1.58878 2.79482 1.40187 2.70466 1.30841C2.61451 1.21495 2.52435 1.12149 2.4342 1.02804C2.34404 0.934578 2.16373 0.934579 2.07358 0.841121C1.89326 0.934579 1.80311 0.934579 1.6228 0.934579ZM0 0.0934565C0.270466 0.0934565 0.450777 0 0.721244 0C0.99171 0 1.26218 0 1.53264 0C1.80311 0 2.07358 -1.42745e-06 2.34404 0.0934565C2.61451 0.186914 2.88497 0.280373 3.15544 0.373831C3.42591 0.560747 3.60622 0.747664 3.69637 0.934579C3.87668 1.21495 3.87668 1.49533 3.87668 1.96262C3.87668 2.33645 3.78653 2.61682 3.69637 2.89719C3.60622 3.17757 3.42591 3.36449 3.15544 3.5514C2.97513 3.73832 2.70466 3.83177 2.4342 3.92523C2.16373 4.01869 1.89326 4.01869 1.6228 4.01869H1.53264C1.44249 4.01869 1.44249 4.01869 1.35233 4.01869C1.26218 4.01869 1.26218 4.01869 1.17202 4.01869C1.08187 4.01869 1.08187 4.01869 1.08187 4.01869V5.88785H0V0.0934565Z" transform="translate(88.0811 33.0186)" fill="#434244"/>
  <path d="M1.6228 3.45794H1.08186V5.88785H0V0H1.08186V2.42991H1.6228L2.88497 0H4.14715L2.52435 2.89719L4.32746 5.98131H2.97513L1.6228 3.45794Z" transform="translate(93.7607 33.0186)" fill="#434244"/>
  <path d="M2.97513 2.8972L3.06528 2.14953L2.70466 2.8972L0.991709 5.98131H0V0.0934583H1.08186V3.17757L0.991709 3.92523H1.08186L1.44249 3.08411L3.06528 0H4.05699V5.98131H2.97513V2.8972Z" transform="translate(99.6211 32.9253)" fill="#434244"/>
  <path d="M1.6228 0.934579C1.53264 0.934579 1.44249 0.934579 1.35233 0.934579C1.26218 0.934579 1.17202 0.934579 1.08186 0.934579V2.80374H1.17202C1.17202 2.80374 1.26218 2.80374 1.35233 2.80374C1.44249 2.80374 1.44248 2.80374 1.53264 2.80374H1.6228C1.80311 2.80374 1.89326 2.80374 2.07357 2.80374C2.25389 2.80374 2.34404 2.71028 2.43419 2.61682C2.52435 2.52336 2.61451 2.42991 2.70466 2.33645C2.79482 2.24299 2.79482 2.05607 2.79482 1.7757C2.79482 1.58878 2.79482 1.40187 2.70466 1.30841C2.61451 1.21495 2.52435 1.12149 2.43419 1.02804C2.34404 0.934578 2.16373 0.934579 2.07357 0.841121C1.89326 0.934579 1.80311 0.934579 1.6228 0.934579ZM0 0.0934565C0.270466 0.0934565 0.450776 0 0.721243 0C0.991709 0 1.26217 0 1.53264 0C1.80311 0 2.07357 -1.42745e-06 2.34404 0.0934565C2.61451 0.186914 2.88497 0.280373 3.15544 0.373831C3.42591 0.560747 3.60622 0.747664 3.69637 0.934579C3.87668 1.21495 3.87668 1.49533 3.87668 1.96262C3.87668 2.33645 3.78653 2.61682 3.69637 2.89719C3.60622 3.17757 3.42591 3.36449 3.15544 3.5514C2.97513 3.73832 2.70466 3.83177 2.43419 3.92523C2.16373 4.01869 1.89326 4.01869 1.6228 4.01869H1.53264C1.44248 4.01869 1.44249 4.01869 1.35233 4.01869C1.26218 4.01869 1.26218 4.01869 1.17202 4.01869C1.08186 4.01869 1.08186 4.01869 1.08186 4.01869V5.88785H0V0.0934565Z" transform="translate(105.661 33.0186)" fill="#434244"/>
  <path d="M1.17202 2.99065C1.17202 3.27103 1.17202 3.5514 1.17202 3.83178C1.17202 4.11215 1.26218 4.29906 1.35233 4.48598C1.44249 4.6729 1.53264 4.85981 1.6228 4.95327C1.80311 5.04673 1.98342 5.04673 2.16373 5.04673C2.34404 5.04673 2.52435 5.04673 2.61451 4.95327C2.70466 4.85981 2.79482 4.76636 2.88497 4.57944C2.97513 4.39252 2.97513 4.20561 3.06529 3.92523C3.06529 3.64486 3.06529 3.36449 3.06529 2.99065C3.06529 2.71028 3.06529 2.42991 3.06529 2.24299C3.06529 1.96262 2.97513 1.7757 2.97513 1.58878C2.88497 1.40187 2.79482 1.21495 2.70466 1.12149C2.61451 1.02804 2.4342 0.934579 2.16373 0.934579C1.80311 0.934579 1.53264 1.1215 1.35233 1.40187C1.26218 1.86916 1.17202 2.33645 1.17202 2.99065ZM0 2.99065C0 2.52336 -1.37701e-06 2.05607 0.0901541 1.68224C0.18031 1.30841 0.270466 0.934579 0.450777 0.747663C0.631088 0.467289 0.8114 0.280373 1.08187 0.186915C1.35233 -1.07233e-06 1.6228 0 2.07357 0C2.4342 0 2.79482 0.0934569 3.06529 0.186915C3.33575 0.373831 3.51606 0.560747 3.69637 0.841121C3.87668 1.1215 3.96684 1.40187 4.05699 1.7757C4.14715 2.14953 4.14715 2.52336 4.14715 2.99065C4.14715 3.92523 3.96684 4.6729 3.60622 5.23365C3.2456 5.79439 2.70466 6.07476 1.98342 6.07476C1.6228 6.07476 1.26217 5.98131 0.991709 5.88785C0.721242 5.70093 0.450779 5.51402 0.360623 5.23365C0.180312 4.95327 0.0901554 4.6729 0 4.29907C0 3.92523 0 3.45794 0 2.99065Z" transform="translate(111.16 32.9253)" fill="#434244"/>
  <path d="M1.89327 5.04673C2.07358 5.04673 2.16373 5.04673 2.25389 4.95327C2.34404 4.95327 2.52435 4.85981 2.61451 4.76635C2.70466 4.6729 2.79482 4.57944 2.88497 4.48598C2.97513 4.39252 2.97513 4.29907 2.97513 4.11215C2.97513 3.92523 2.97513 3.73832 2.88497 3.64486C2.79482 3.5514 2.70466 3.45794 2.61451 3.36448C2.52435 3.27103 2.34404 3.27103 2.25389 3.27103C2.07358 3.27103 1.98342 3.27103 1.80311 3.27103H1.17202V4.95327H1.26218C1.35233 4.95327 1.35233 4.95327 1.44249 4.95327C1.53264 4.95327 1.6228 4.95327 1.6228 4.95327C1.80311 5.04673 1.80311 5.04673 1.89327 5.04673ZM1.53264 2.42991C1.6228 2.42991 1.71295 2.42991 1.80311 2.42991C1.89326 2.42991 1.98342 2.42991 2.07358 2.42991C2.25389 2.33645 2.4342 2.24299 2.61451 2.14953C2.79482 2.05607 2.88497 1.86916 2.88497 1.58878C2.88497 1.40187 2.88498 1.30841 2.79482 1.21495C2.70467 1.12149 2.70466 1.02804 2.61451 1.02804C2.52435 0.934578 2.4342 0.934579 2.34404 0.934579C2.25389 0.934579 2.07358 0.934579 1.98342 0.934579C1.80311 0.934579 1.71296 0.934579 1.6228 0.934579C1.53265 0.934579 1.44249 0.934579 1.35233 0.934579V2.52336H1.53264V2.42991ZM3.96684 1.40187C3.96684 1.58879 3.96684 1.68224 3.87669 1.86916C3.87669 2.05607 3.78653 2.14953 3.69638 2.24299C3.60622 2.33645 3.51606 2.42991 3.33575 2.52336C3.2456 2.61682 3.06529 2.71028 2.88497 2.71028V2.80374C3.06529 2.80374 3.2456 2.8972 3.33575 2.99065C3.51606 3.08411 3.60622 3.17757 3.69638 3.27103C3.78653 3.36449 3.87669 3.5514 3.96684 3.73832C4.057 3.92523 4.05699 4.11215 4.05699 4.29906C4.05699 4.57944 3.96684 4.85981 3.87669 5.04673C3.78653 5.23364 3.60622 5.42056 3.33575 5.60748C3.15544 5.70093 2.88498 5.88785 2.61451 5.88785C2.34404 5.98131 2.07358 5.98131 1.80311 5.98131H1.44249C1.26218 5.98131 1.17202 5.98131 0.991712 5.98131C0.811401 5.98131 0.631088 5.98131 0.450777 5.98131C0.270466 5.98131 0.0901554 5.98131 0 5.88785V0.0934565C0.0901554 0.0934565 0.180312 0.093458 0.360623 0C0.450779 0 0.631089 0 0.8114 0C0.991711 0 1.08187 0 1.26218 0C1.44249 0 1.6228 0 1.71295 0C1.98342 0 2.25389 -1.42745e-06 2.52436 0.0934565C2.79482 0.0934565 2.97513 0.186915 3.2456 0.280373C3.42591 0.373831 3.60622 0.560747 3.69638 0.747663C3.87669 0.841121 3.96684 1.02804 3.96684 1.40187Z" transform="translate(117.11 33.0186)" fill="#434244"/>
  <path d="M1.6228 3.45794H1.08187V5.88785H0V0H1.08187V2.42991H1.6228L2.88497 0H4.14715L2.52435 2.80374L4.32746 5.88785H2.97513L1.6228 3.45794Z" transform="translate(123.062 33.0186)" fill="#434244"/>
  <path d="M2.97513 2.8972L3.06528 2.14953L2.70466 2.8972L0.991709 5.98131H0V0.0934583H1.08187V3.17757L0.991709 3.92523H1.08187L1.44249 3.08411L3.06528 0H4.05699V5.98131H2.97513V2.8972Z" transform="translate(128.922 32.9253)" fill="#434244"/>
</svg>
