<svg width="16" height="16" viewBox="0 0 16 16" fill="none" xmlns="http://www.w3.org/2000/svg">
<path d="M5.5 5.5H3C2.6 5.5 2.2 5.4 1.8 5.3C1.4 5.1 1.1 4.9 0.8 4.7C0.5 4.4 0.3 4.1 0.2 3.7C0.1 3.3 0 2.9 0 2.5V0H2V2.5C2 2.6 2 2.8 2.1 2.9C2.2 3 2.2 3.1 2.3 3.2C2.4 3.3 2.5 3.4 2.6 3.4C2.8 3.5 2.9 3.5 3 3.5H5.5V5.5Z" transform="translate(1 9.5)" fill="#434244"/>
<path d="M2.5 5.5H0V3.5H2.5C2.6 3.5 2.8 3.5 2.9 3.4C3 3.3 3.1 3.3 3.2 3.2C3.3 3.1 3.4 3 3.4 2.9C3.5 2.7 3.5 2.6 3.5 2.5V0H5.5V2.5C5.5 2.9 5.4 3.3 5.3 3.7C5.1 4.1 4.9 4.4 4.6 4.7C4.3 5 4 5.2 3.6 5.3C3.3 5.4 2.9 5.5 2.5 5.5Z" transform="translate(9.5 9.5)" fill="#434244"/>
<path d="M5.5 5.5H3.5V3C3.5 2.9 3.5 2.7 3.4 2.6C3.3 2.5 3.3 2.4 3.2 2.3C3.1 2.2 3 2.1 2.9 2.1C2.7 2 2.6 2 2.5 2H0V0H2.5C2.9 0 3.3 0.1 3.7 0.2C4.1 0.4 4.4 0.6 4.7 0.8C5 1 5.2 1.4 5.3 1.8C5.4 2.2 5.5 2.6 5.5 3V5.5Z" transform="translate(9.5 1)" fill="#434244"/>
<path d="M2 5.5H0V3C0 2.6 0.1 2.2 0.2 1.8C0.4 1.4 0.6 1.1 0.8 0.8C1.1 0.5 1.4 0.3 1.8 0.1C2.2 0.1 2.6 0 3 0H5.5V2H3C2.9 2 2.8 2 2.6 2.1C2.5 2.1 2.4 2.2 2.3 2.3C2.2 2.4 2.1 2.5 2.1 2.6C2 2.8 2 2.9 2 3V5.5Z" transform="translate(1 1)" fill="#434244"/>
</svg>
