<svg width="16" height="16" viewBox="0 0 16 16" fill="#434244" xmlns="http://www.w3.org/2000/svg">
    <rect x="14" y="3" width="2" height="2" rx="1" />
    <rect y="11" width="2" height="2" rx="1" />
    <path fill-rule="evenodd" clip-rule="evenodd" d="M1 5.41421L0.999441 5.41365L0.292893 4.7071C-0.0976311 4.31658 -0.0976311 3.68341 0.292893 3.29289L1 2.58578L3.12132 0.464463C3.51184 0.0739388 4.14501 0.0739387 4.53553 0.464463C4.92606 0.854987 4.92606 1.48815 4.53553 1.87868L3.41421 3H11C11.5523 3 12 3.44772 12 4C12 4.55229 11.5523 5 11 5H3.41422L4.53553 6.12132C4.92606 6.51184 4.92606 7.14501 4.53553 7.53553C4.14501 7.92605 3.51184 7.92605 3.12132 7.53553L1 5.41421Z" />
    <path fill-rule="evenodd" clip-rule="evenodd" d="M15 13.2426L15.0006 13.2421L15.7071 12.5355C16.0976 12.145 16.0976 11.5118 15.7071 11.1213L15 10.4142L12.8787 8.29289C12.4882 7.90237 11.855 7.90237 11.4645 8.29289C11.0739 8.68342 11.0739 9.31658 11.4645 9.70711L12.7574 11H5.00003C4.44774 11 4.00003 11.4477 4.00003 12C4.00003 12.5523 4.44774 13 5.00003 13H12.4142L11.4645 13.9497C11.0739 14.3403 11.0739 14.9734 11.4645 15.364C11.855 15.7545 12.4882 15.7545 12.8787 15.364L15 13.2426Z" />
</svg>
