<svg width="16" height="18" viewBox="0 0 16 18" fill="none" xmlns="http://www.w3.org/2000/svg">
    <path fill-rule="evenodd" clip-rule="evenodd" d="M6.68704 1.62466C8.81751 -0.541552 12.2717 -0.541554 14.4021 1.62466C16.5326 3.79087 16.5326 7.30299 14.4021 9.4692L7.53429 16.4523L7.22204 16.7698C5.6088 18.4101 2.99322 18.4101 1.37998 16.7698C-0.233256 15.1295 -0.233257 12.47 1.37998 10.8297L4.66702 7.48752C4.66974 7.4847 4.67248 7.48188 4.67524 7.47908L8.56009 3.52905C9.65611 2.41465 11.4331 2.41465 12.5291 3.52905C13.6251 4.64344 13.6251 6.45024 12.5291 7.56464L6.28558 13.9129C5.87921 14.3261 5.22035 14.3261 4.81398 13.9129C4.40761 13.4997 4.40761 12.8298 4.81398 12.4166L11.0575 6.06835C11.3408 5.78033 11.3408 5.31335 11.0575 5.02533C10.7742 4.73731 10.315 4.73731 10.0317 5.02533L8.16681 6.9215C8.16408 6.92433 8.16133 6.92716 8.15857 6.92997L2.85158 12.326C2.05108 13.1399 2.05108 14.4596 2.85158 15.2735C3.65208 16.0874 4.94994 16.0874 5.75044 15.2735L6.06268 14.956L12.9306 7.97292C14.2483 6.63308 14.2483 4.46078 12.9306 3.12094C11.6128 1.7811 9.47636 1.7811 8.15863 3.12094L1.77637 9.61027C1.37 10.0235 0.711147 10.0235 0.304777 9.61027C-0.101592 9.19709 -0.101592 8.52718 0.304777 8.11399L6.68704 1.62466Z" fill="#4AA5E8"/>
</svg>
