<svg width="62" height="64" viewBox="0 0 62 64" fill="none" xmlns="http://www.w3.org/2000/svg">
    <g clip-path="url(#clip0)">
        <path d="M31 16C26.6 16 23 12.4 23 8C23 3.6 26.6 0 31 0C35.4 0 39 3.6 39 8C39 12.4 35.4 16 31 16ZM31 4C28.8 4 27 5.8 27 8C27 10.2 28.8 12 31 12C33.2 12 35 10.2 35 8C35 5.8 33.2 4 31 4Z" fill="#434244"/>
        <path d="M38 64.0004C36.9 64.0004 36 63.1004 36 62.0004V43.3004C36 41.5004 37.5 40.0004 39.3 40.0004H41V26.7004C41 24.7004 39.7 22.8004 37.8 22.1004C35.6 21.2004 34.8 21.0004 31 21.0004C27.2 21.0004 26.4 21.3004 24.2 22.1004C22.3 22.8004 21 24.7004 21 26.7004V40.0004H22.7C24.5 40.0004 26 41.5004 26 43.3004V62.0004C26 63.1004 25.1 64.0004 24 64.0004C22.9 64.0004 22 63.1004 22 62.0004V44.0004H20.3C18.5 44.0004 17 42.5004 17 40.7004V26.7004C17 23.0004 19.3 19.7004 22.8 18.3004C25.6 17.2004 26.8 16.9004 31 16.9004C35.2 16.9004 36.4 17.2004 39.2 18.3004C42.7 19.6004 45 23.0004 45 26.7004V40.6004C45 42.4004 43.5 43.9004 41.7 43.9004H40V61.9004C40 63.1004 39.1 64.0004 38 64.0004Z" fill="#434244"/>
        <path d="M49 16C44.6 16 41 12.4 41 8C41 3.6 44.6 0 49 0C53.4 0 57 3.6 57 8C57 12.4 53.4 16 49 16ZM49 4C46.8 4 45 5.8 45 8C45 10.2 46.8 12 49 12C51.2 12 53 10.2 53 8C53 5.8 51.2 4 49 4Z" fill="#434244"/>
        <path d="M55 64C53.9 64 53 63.1 53 62V43.3C53 41.5 54.5 40 56.3 40H58V26.7C58 24.7 56.7 22.8 54.8 22.1C52.6 21.2 51.8 21 48 21C46.9 21 46 20.1 46 19C46 17.9 46.9 17 48 17C52.2 17 53.4 17.3 56.2 18.4C59.7 19.7 62 23.1 62 26.8V40.7C62 42.5 60.5 44 58.7 44H57V62C57 63.1 56.1 64 55 64Z" fill="#434244"/>
        <path d="M13 16C8.6 16 5 12.4 5 8C5 3.6 8.6 0 13 0C17.4 0 21 3.6 21 8C21 12.4 17.4 16 13 16ZM13 4C10.8 4 9 5.8 9 8C9 10.2 10.8 12 13 12C15.2 12 17 10.2 17 8C17 5.8 15.2 4 13 4Z" fill="#434244"/>
        <path d="M7 64.0004C5.9 64.0004 5 63.1004 5 62.0004V44.0004H3.3C1.5 44.0004 0 42.5004 0 40.7004V26.7004C0 23.0004 2.3 19.7004 5.8 18.3004C8.6 17.2004 9.8 16.9004 14 16.9004C15.1 16.9004 16 17.8004 16 18.9004C16 20.0004 15.1 20.9004 14 20.9004C10.2 20.9004 9.4 21.2004 7.2 22.0004C5.3 22.9004 4 24.7004 4 26.7004V40.0004H5.7C7.5 40.0004 9 41.5004 9 43.3004V62.0004C9 63.1004 8.1 64.0004 7 64.0004Z" fill="#434244"/>
    </g>
    <defs>
        <clipPath id="clip0">
            <rect width="62" height="64" fill="white"/>
        </clipPath>
    </defs>
</svg>
