<svg width="16" height="16" viewBox="0 0 16 16" fill="none" xmlns="http://www.w3.org/2000/svg">
<path d="M13 16C14.7 16 16 14.7 16 13C16 11.3 14.7 10 13 10C11.7 10 10.6 10.8 10.2 12H3.5C2.7 12 2 11.3 2 10.5C2 9.7 2.7 9 3.5 9H12.5C14.4 9 16 7.4 16 5.5C16 3.6 14.4 2 12.5 2H5.8C5.4 0.8 4.3 0 3 0C1.3 0 0 1.3 0 3C0 4.7 1.3 6 3 6C4.3 6 5.4 5.2 5.8 4H12.5C13.3 4 14 4.7 14 5.5C14 6.3 13.3 7 12.5 7H3.5C1.6 7 0 8.6 0 10.5C0 12.4 1.6 14 3.5 14H10.2C10.6 15.2 11.7 16 13 16ZM2 3C2 2.4 2.4 2 3 2C3.6 2 4 2.4 4 3C4 3.6 3.6 4 3 4C2.4 4 2 3.6 2 3ZM12 13C12 12.4 12.4 12 13 12C13.6 12 14 12.4 14 13C14 13.6 13.6 14 13 14C12.4 14 12 13.6 12 13Z" fill="#434343"/>
</svg>
