<svg width="20" height="20" viewBox="0 0 20 20" fill="none" xmlns="http://www.w3.org/2000/svg">
    <path d="M9.25 12.1651L12.25 10.433C12.5833 10.2406 12.5833 9.75944 12.25 9.56699L9.25 7.83494C8.91667 7.64249 8.5 7.88305 8.5 8.26795V11.732C8.5 12.117 8.91667 12.3575 9.25 12.1651Z" fill="#63666A"/>
    <path fill-rule="evenodd" clip-rule="evenodd" d="M18 10C18 14.4183 14.4183 18 10 18C5.58172 18 2 14.4183 2 10C2 5.58172 5.58172 2 10 2C14.4183 2 18 5.58172 18 10ZM16 10C16 13.3137 13.3137 16 10 16C6.68629 16 4 13.3137 4 10C4 6.68629 6.68629 4 10 4C13.3137 4 16 6.68629 16 10Z" fill="#63666A"/>
</svg>
