<svg width="64" height="64" viewBox="0 0 64 64" fill="none" xmlns="http://www.w3.org/2000/svg">
<g clip-path="url(#clip0)">
<path d="M29.1 44H2C0.9 44 0 44.9 0 46C0 47.1 0.9 48 2 48H29.1C31.3 48 33.1 49.8 33.1 52C33.1 54.2 31.3 56 29.1 56H2C0.9 56 0 56.9 0 58C0 59.1 0.9 60 2 60H29.1C33.5 60 37.1 56.4 37.1 52C37.1 47.6 33.5 44 29.1 44Z" fill="#434244"/>
<path d="M29 55C30.6569 55 32 53.6569 32 52C32 50.3431 30.6569 49 29 49C27.3431 49 26 50.3431 26 52C26 53.6569 27.3431 55 29 55Z" fill="#434244"/>
<path d="M16 55C17.6569 55 19 53.6569 19 52C19 50.3431 17.6569 49 16 49C14.3431 49 13 50.3431 13 52C13 53.6569 14.3431 55 16 55Z" fill="#434244"/>
<path d="M3 55C4.65685 55 6 53.6569 6 52C6 50.3431 4.65685 49 3 49C1.34315 49 0 50.3431 0 52C0 53.6569 1.34315 55 3 55Z" fill="#434244"/>
<path d="M55 37C56.6569 37 58 35.6569 58 34C58 32.3431 56.6569 31 55 31C53.3431 31 52 32.3431 52 34C52 35.6569 53.3431 37 55 37Z" fill="#434244"/>
<path d="M42 46C43.6569 46 45 44.6569 45 43C45 41.3431 43.6569 40 42 40C40.3431 40 39 41.3431 39 43C39 44.6569 40.3431 46 42 46Z" fill="#434244"/>
<path d="M55.1 26H41V25H48.7C51.1 25 53 23.1 53 20.7V8.3C53 5.9 51.1 4 48.7 4H36.3C33.9 4 32 5.9 32 8.3V13H24.3C21.9 13 20 14.9 20 17.3V22H11.3C9 22 7.2 23.8 7 26H2C0.9 26 0 26.9 0 28C0 29.1 0.9 30 2 30H7V35H2C0.9 35 0 35.9 0 37C0 38.1 0.9 39 2 39H7V38.7C7 41.1 8.9 43 11.3 43H23.6C25.9 43 27.7 41.2 27.9 39H42C44.2 39 46 40.8 46 43C46 45.2 44.2 47 42 47H40C38.9 47 38 47.9 38 49C38 50.1 38.9 51 40 51H42.1C46.5 51 50.1 47.4 50.1 43C50.1 38.6 46.5 35 42.1 35H28V34H36.7C39 34 40.8 32.2 41 30H55.1C57.3 30 59.1 31.8 59.1 34C59.1 36.2 57.3 38 55.1 38H53C51.9 38 51 38.9 51 40C51 41.1 51.9 42 53 42H55.1C59.5 42 63.1 38.4 63.1 34C63.1 29.6 59.5 26 55.1 26ZM36 8.3C36 8.2 36.2 8 36.3 8H48.6C48.8 8 49 8.2 49 8.3V20.6C49 20.8 48.8 20.9 48.7 20.9H41V17.2C41 14.8 39.1 12.9 36.7 12.9H36V8.3ZM24 38.7C24 38.9 23.8 39 23.7 39H11.3C11.1 39 11 38.8 11 38.7V26.3C11 26.1 11.2 26 11.3 26H20H23.7C23.9 26 24 26.2 24 26.3V30V34V38.7ZM37 29.7C37 29.9 36.8 30 36.7 30H28V26.3C28 24 26.2 22.2 24 22V17.3C24 17.1 24.2 17 24.3 17H32H36H36.7C36.9 17 37 17.2 37 17.3V21V25V29.7Z" fill="#434244"/>
</g>
<defs>
<clipPath id="clip0">
<rect width="63.1" height="56" fill="white" transform="translate(0 4)"/>
</clipPath>
</defs>
</svg>
