
<svg width="19" height="19" viewBox="0 0 19 19" fill="none" xmlns="http://www.w3.org/2000/svg">
    <g opacity="0.7">
        <path d="M6.60911 6.73748C6.39469 5.5128 5.24048 4.69346 4.03554 4.90959L1.43209 5.3621C1.02898 5.43217 0.758041 5.8211 0.82699 6.23081C0.895939 6.64052 1.27872 6.91575 1.6818 6.84575L3.95839 6.45003L0.371807 12.3188C-0.101003 13.0925 -0.124197 14.0279 0.309797 14.821C0.748838 15.6232 1.55456 16.1022 2.46511 16.1022H5.66883C6.07785 16.1022 6.40938 15.7653 6.40938 15.3496C6.40938 14.934 6.07785 14.5971 5.66883 14.5971H2.46511C2.10003 14.5971 1.77821 14.4073 1.60424 14.0894C1.52316 13.9412 1.36333 13.5494 1.63007 13.1129L5.19851 7.27372L5.63413 9.76173C5.69796 10.1264 6.0102 10.3826 6.36237 10.3826C6.40541 10.3826 6.44909 10.3787 6.49295 10.3709C6.89563 10.298 7.164 9.90726 7.09238 9.49804L6.60911 6.73748Z" fill="black"/>
        <path d="M18.5917 12.2632L17.2097 10.1208C16.9854 9.77322 16.5264 9.67618 16.1844 9.904C15.8423 10.1319 15.7468 10.5984 15.971 10.946L17.3543 13.0905C17.5518 13.3946 17.5685 13.7676 17.3988 14.0881C17.2258 14.4149 16.9023 14.61 16.5337 14.61H9.75991L11.5678 12.8007C11.8592 12.509 11.8628 12.0325 11.5758 11.7363C11.2888 11.4402 10.8199 11.4365 10.5285 11.7282L8.58217 13.6762C8.15887 14.1028 7.92578 14.6706 7.92578 15.2748C7.92578 15.8791 8.15886 16.4468 8.58069 16.872L10.4631 18.7804C10.6076 18.927 10.7969 19.0002 10.9861 19.0002C11.1759 19.0002 11.3657 18.9265 11.5104 18.7791C11.7992 18.4849 11.7987 18.0084 11.5091 17.7148L9.93132 16.1152H16.5337C17.4427 16.1152 18.2739 15.6117 18.7031 14.8013C19.1354 13.9849 19.0933 13.0354 18.5917 12.2632Z" fill="black"/>
        <path d="M8.46829 1.9743C8.64745 1.68109 8.94682 1.51014 9.28956 1.50531C9.63145 1.49973 9.9366 1.66306 10.1236 1.95096L13.5762 7.27353L11.473 6.85922C11.0715 6.78025 10.6829 7.0468 10.605 7.45485C10.5272 7.8629 10.7896 8.25779 11.1912 8.33691L13.7405 8.83909C13.7432 8.83962 13.7459 8.84015 13.7487 8.84068C13.8828 8.86553 14.0162 8.87748 14.1479 8.87748C15.2 8.87748 16.1375 8.11267 16.3325 7.02447L16.8004 4.42185C16.8739 4.01297 16.6073 3.62095 16.205 3.54624C15.8027 3.47142 15.4169 3.74246 15.3434 4.15134L14.9054 6.58784L11.3599 1.12207C10.8958 0.407682 10.1134 -0.0113802 9.26896 0.000235287C8.42573 0.0121148 7.65745 0.451467 7.21281 1.17566L6.07949 2.97829C5.85928 3.32856 5.96015 3.79394 6.30482 4.01772C6.64949 4.24151 7.10742 4.13897 7.32762 3.78873L8.46321 1.98249C8.46491 1.97973 8.46662 1.97702 8.46829 1.9743Z" fill="black"/>
    </g>
</svg>
