<svg width="64" height="64" viewBox="0 0 64 64" fill="none" xmlns="http://www.w3.org/2000/svg">
    <path d="M14 16C18.4 16 22 12.4 22 8C22 3.6 18.4 0 14 0C9.6 0 6 3.6 6 8C6 12.4 9.6 16 14 16ZM14 4C16.2 4 18 5.8 18 8C18 10.2 16.2 12 14 12C11.8 12 10 10.2 10 8C10 5.8 11.8 4 14 4Z" fill="#434244"/>
    <path d="M22.2 18.4C19.4 17.3 18.2 17 14 17C9.8 17 8.6 17.3 5.8 18.4C2.3 19.7 0 23.1 0 26.7V40.6C0 42.5 1.5 44 3.3 44H5V62C5 63.1 5.9 64 7 64C8.1 64 9 63.1 9 62V43.3C9 41.5 7.5 40 5.7 40H4V26.7C4 24.7 5.3 22.8 7.2 22.1C9.4 21.3 10.2 21 14 21C17.8 21 18.6 21.3 20.8 22.1C22.7 22.8 24 24.7 24 26.7V40H22.3C20.5 40 19 41.5 19 43.3V62C19 63.1 19.9 64 21 64C22.1 64 23 63.1 23 62V44H24.7C26.5 44 28 42.5 28 40.7V26.7C28 23.1 25.7 19.7 22.2 18.4Z" fill="#434244"/>
    <path d="M59.6 2H55.5C53 2 51 4 51 6.4V11H46.4C44 11 42 13 42 15.4V25H37.4C35 25 33 27 33 29.4V59.5C33 62 35 63.9 37.4 63.9H39C40.1 63.9 41 63 41 61.9C41 60.8 40.1 59.9 39 59.9H37.4C37.2 59.9 37 59.7 37 59.5V29.4C37 29.2 37.2 29 37.4 29H42V59.6C42 62.1 44 64 46.4 64H48C49.1 64 50 63.1 50 62C50 60.9 49.1 60 48 60H46.4C46.2 60 46 59.8 46 59.6V15.4C46 15.2 46.2 15 46.4 15H51V59.6C51 62.1 53 64 55.4 64H58C59.1 64 60 63.1 60 62C60 60.9 59.1 60 58 60H55.4C55.2 60 55 59.8 55 59.6V6.4C55 6.2 55.2 6 55.4 6H59.5C59.8 6 60 6.2 60 6.4V56.5C60 57.6 60.9 58.5 62 58.5C63.1 58.5 64 57.6 64 56.5V6.4C64 4 62 2 59.6 2Z" fill="#434244"/>
</svg>
