<svg width="64" height="64" viewBox="0 0 64 64" fill="none" xmlns="http://www.w3.org/2000/svg">
    <g clip-path="url(#clip0)">
        <path d="M62 33.6001C60.9 33.6001 60 34.5001 60 35.6001V62.0001C60 63.1001 60.9 64.0001 62 64.0001C63.1 64.0001 64 63.1001 64 62.0001V35.6001C64 34.4001 63.1 33.6001 62 33.6001Z" fill="#434244"/>
        <path d="M29 34H4V17C4 15.9 3.1 15 2 15C0.9 15 0 15.9 0 17V62C0 63.1 0.9 64 2 64C3.1 64 4 63.1 4 62V38H29C30.1 38 31 37.1 31 36C31 34.9 30.1 34 29 34Z" fill="#434244"/>
        <path d="M11.7 30.9999H23C24.1 30.9999 25 30.0999 25 28.9999C25 27.8999 24.1 26.9999 23 26.9999H11.7C11.3 26.9999 11 26.6999 11 26.2999V12.5999C11 12.1999 11.3 11.8999 11.7 11.8999H16V16.8999H21V11.8999H23C24.1 11.8999 25 10.9999 25 9.8999C25 8.7999 24.1 7.8999 23 7.8999H11.7C9.1 7.8999 7 9.9999 7 12.5999V26.2999C7 28.8999 9.1 30.9999 11.7 30.9999Z" fill="#434244"/>
        <path d="M26.5 41H10.5C8.6 41 7 42.5 7 44.5V60.5C7 62.4 8.6 64 10.5 64H26.5C28.4 64 30 62.4 30 60.5V44.5C30 42.5 28.4 41 26.5 41ZM26 60H11V45H16V50H21V45H26V60Z" fill="#434244"/>
        <path d="M53.5 41H37.5C35.6 41 34 42.6 34 44.5V60.5C34 62.4 35.6 64 37.5 64H53.5C55.4 64 57 62.4 57 60.5V44.5C57 42.5 55.4 41 53.5 41ZM53 60H38V45H43V51H48V45H53V60Z" fill="#434244"/>
        <path d="M63.5 13.6C63.1 12.1 61.2 11.6 60.1 12.7C59.6 13.2 59.4 13.9 59.6 14.6C60.1 16.5 60.2 18.6 59.7 20.8C58.5 26.7 53.4 31.3 47.4 31.9C38.4 32.8 30.9 25.1 32.1 16C33 10 37.8 5.1 43.8 4.2C48.2 3.5 52.3 4.9 55.3 7.6L45.8 18.3L40.3 13.6C39.5 12.9 38.2 13 37.5 13.8C36.8 14.6 36.9 15.9 37.7 16.6L46.2 23.9L63.5 4.3C64.2 3.5 64.2 2.2 63.3 1.5C62.5 0.8 61.2 0.8 60.5 1.7L57.9 4.6C54.8 1.7 50.6 0 46 0C36.1 0 28 8.1 28 18C28 27.9 36.1 36 46 36C55.9 36 64 27.9 64 18C64 16.5 63.8 15 63.5 13.6Z" fill="#434244"/>
    </g>
    <defs>
        <clipPath id="clip0">
            <rect width="64" height="64" fill="white"/>
        </clipPath>
    </defs>
</svg>
