<svg width="64" height="64" viewBox="0 0 64 64" fill="none" xmlns="http://www.w3.org/2000/svg">
    <path d="M62 33.6C60.9 33.6 60 34.5 60 35.6V62C60 63.1 60.9 64 62 64C63.1 64 64 63.1 64 62V35.6C64 34.5 63.1 33.6 62 33.6Z" fill="#434244"/>
    <path d="M29 34H4V17C4 15.9 3.1 15 2 15C0.9 15 0 15.9 0 17V62C0 63.1 0.9 64 2 64C3.1 64 4 63.1 4 62V38H29C30.1 38 31 37.1 31 36C31 34.9 30.1 34 29 34Z" fill="#434244"/>
    <path d="M11.7 31H23C24.1 31 25 30.1 25 29C25 27.9 24.1 27 23 27H11.7C11.3 27 11 26.7 11 26.3V12.7C11 12.3 11.3 12 11.7 12H16V17H21V12H23C24.1 12 25 11.1 25 10C25 8.9 24.1 8 23 8H11.7C9.1 8 7 10.1 7 12.7V26.4C7 28.9 9.1 31 11.7 31Z" fill="#434244"/>
    <path d="M26.5 41H10.5C8.6 41 7 42.6 7 44.5V60.5C7 62.4 8.6 64 10.5 64H26.5C28.4 64 30 62.4 30 60.5V44.5C30 42.6 28.4 41 26.5 41ZM26 60H11V45H16V50H21V45H26V60Z" fill="#434244"/>
    <path d="M53.5 41H37.5C35.6 41 34 42.6 34 44.5V60.5C34 62.4 35.6 64 37.5 64H53.5C55.4 64 57 62.4 57 60.5V44.5C57 42.6 55.4 41 53.5 41ZM53 60H38V45H43V51H48V45H53V60Z" fill="#434244"/>
    <path d="M45 0C34.5 0 26 8.5 26 19C26 29.5 34.5 38 45 38C55.5 38 64 29.5 64 19C64 8.5 55.5 0 45 0ZM45 34C36.7 34 30 27.3 30 19C30 10.7 36.7 4 45 4C53.3 4 60 10.7 60 19C60 27.3 53.3 34 45 34Z" fill="#434244"/>
    <path d="M53.4 9.80001C52.6 9.00001 51.4 9.00001 50.6 9.80001L35.6 24.8C34.8 25.6 34.8 26.8 35.6 27.6C36 28 36.5 28.2 37 28.2C37.5 28.2 38 28 38.4 27.6L53.4 12.6C54.2 11.8 54.2 10.6 53.4 9.80001Z" fill="#434244"/>
    <path d="M50.7004 21.6C48.9004 21.6 47.4004 23.1 47.4004 24.9C47.4004 26.7 48.9004 28.2 50.7004 28.2C52.5004 28.2 54.0004 26.7 54.0004 24.9C54.0004 23.1 52.5004 21.6 50.7004 21.6Z" fill="#434244"/>
    <path d="M38.7004 16.2C40.5004 16.2 42.0004 14.7 42.0004 12.9C42.0004 11.1 40.5004 9.60001 38.7004 9.60001C36.9004 9.60001 35.4004 11.1 35.4004 12.9C35.4004 14.7 36.9004 16.2 38.7004 16.2Z" fill="#434244"/>
</svg>
