<svg width="64" height="65" viewBox="0 0 64 65" fill="none" xmlns="http://www.w3.org/2000/svg">
<path d="M47.56 0H13.44C10.44 0 8 2.44 8 5.44V8H5.44C2.44 8 0 10.44 0 13.44V58.57C0 61.57 2.44 64.01 5.44 64.01H39.57C39.57 64.01 41.5 63.9472 41.5 62C41.5 60.3575 40.0768 60.0629 39.6315 60.0109C39.5441 60.0007 39.456 60 39.368 60H5.44C4.65 60 4 59.36 4 58.56V13.44C4 12.65 4.65 12 5.44 12H39.57C40.36 12 41.01 12.65 41.01 13.44V30.7101C41.01 31.9754 42.3186 32.8321 43.5422 32.5099C44.3645 32.2933 45 31.5758 45 30.7254V13.44C45 10.44 42.56 8 39.56 8H12V5.44C12 4.65 12.65 4 13.44 4H47.57C48.35 4 49 4.65 49 5.44V30.4808C49 31.383 49.7071 32.1293 50.5913 32.3083C51.793 32.5515 53.01 31.6946 53.01 30.4686V5.44C53 2.44 50.56 0 47.56 0Z" fill="#434244"/>
<path d="M10 24C10 22.8954 10.8954 22 12 22H33C34.1046 22 35 22.8954 35 24C35 25.1046 34.1046 26 33 26H12C10.8954 26 10 25.1046 10 24Z" fill="#434244"/>
<path d="M12 30C10.8954 30 10 30.8954 10 32C10 33.1046 10.8954 34 12 34H33C34.1046 34 35 33.1046 35 32C35 30.8954 34.1046 30 33 30H12Z" fill="#434244"/>
<path d="M12 38C10.8954 38 10 38.8954 10 40C10 41.1046 10.8954 42 12 42H33C34.1046 42 35 41.1046 35 40C35 38.8954 34.1046 38 33 38H12Z" fill="#434244"/>
<path d="M12 46C10.8954 46 10 46.8954 10 48C10 49.1046 10.8954 50 12 50H25C26.1046 50 27 49.1046 27 48C27 46.8954 26.1046 46 25 46H12Z" fill="#434244"/>
<path fill-rule="evenodd" clip-rule="evenodd" d="M47.913 60.3261C50.6235 60.3261 53.139 59.491 55.2161 58.064L60.5856 63.4334C61.3667 64.2145 62.633 64.2145 63.4141 63.4334C64.1951 62.6524 64.1951 61.3861 63.4141 60.605L58.1256 55.3166C59.8184 53.1323 60.826 50.3904 60.826 47.413C60.826 40.2814 55.0447 34.5 47.913 34.5C40.7813 34.5 35 40.2814 35 47.413C35 54.5447 40.7813 60.3261 47.913 60.3261ZM47.913 56.3261C52.8355 56.3261 56.826 52.3356 56.826 47.413C56.826 42.4905 52.8355 38.5 47.913 38.5C42.9905 38.5 39 42.4905 39 47.413C39 52.3356 42.9905 56.3261 47.913 56.3261Z" fill="#434244"/>
</svg>
