<svg width="64" height="64" viewBox="0 0 64 64" fill="none" xmlns="http://www.w3.org/2000/svg">
<path d="M38.62 19.73H24.93C22.09 19.73 19.77 22.04 19.77 24.89V38.58C19.77 41.42 22.08 43.74 24.93 43.74H38.62C41.46 43.74 43.78 41.43 43.78 38.58V24.88C43.78 22.04 41.46 19.73 38.62 19.73ZM39.78 38.57C39.78 39.21 39.26 39.73 38.62 39.73H24.93C24.29 39.73 23.77 39.21 23.77 38.57V24.88C23.77 24.24 24.29 23.72 24.93 23.72H28.77V27.72H34.77V23.72H38.61C39.25 23.72 39.77 24.24 39.77 24.88V38.57H39.78Z" fill="#434244"/>
<path d="M29.24 8.19L29.78 7.65V13.72C29.78 14.82 30.68 15.72 31.78 15.72C32.88 15.72 33.78 14.82 33.78 13.72V7.66L34.32 8.2C34.71 8.59 35.22 8.79 35.73 8.79C36.24 8.79 36.75 8.59 37.14 8.2C37.92 7.42 37.92 6.15 37.14 5.37L31.78 0L26.42 5.36C25.64 6.14 25.64 7.41 26.42 8.19C27.19 8.97 28.46 8.97 29.24 8.19Z" fill="#434244"/>
<path d="M34.3099 55.3601L33.7699 55.9001V49.8301C33.7699 48.7301 32.8699 47.8301 31.7699 47.8301C30.6699 47.8301 29.7699 48.7301 29.7699 49.8301V55.9001L29.2299 55.3601C28.4499 54.5801 27.1799 54.5801 26.3999 55.3601C25.6199 56.1401 25.6199 57.4101 26.3999 58.1901L31.7599 63.5501L37.1199 58.1901C37.8999 57.4101 37.8999 56.1401 37.1199 55.3601C36.3399 54.5801 35.0999 54.5801 34.3099 55.3601Z" fill="#434244"/>
<path d="M7.66 33.78H13.73C14.83 33.78 15.73 32.88 15.73 31.78C15.73 30.68 14.83 29.78 13.73 29.78H7.66L8.2 29.24C8.98 28.46 8.98 27.19 8.2 26.41C7.42 25.63 6.15 25.63 5.37 26.41L0 31.78L5.36 37.14C5.75 37.53 6.26 37.73 6.77 37.73C7.28 37.73 7.79 37.53 8.18 37.14C8.96 36.36 8.96 35.09 8.18 34.31L7.66 33.78Z" fill="#434244"/>
<path d="M58.19 26.41C57.41 25.63 56.14 25.63 55.36 26.41C54.58 27.19 54.58 28.46 55.36 29.24L55.9 29.78H49.83C48.73 29.78 47.83 30.68 47.83 31.78C47.83 32.88 48.73 33.78 49.83 33.78H55.9L55.36 34.32C54.58 35.1 54.58 36.37 55.36 37.15C55.75 37.54 56.26 37.74 56.77 37.74C57.28 37.74 57.79 37.54 58.18 37.15L63.54 31.79L58.19 26.41Z" fill="#434244"/>
<path d="M15.36 45.3101L11.86 48.8101C11.08 49.5901 11.08 50.8601 11.86 51.6401C12.25 52.0301 12.76 52.2301 13.27 52.2301C13.78 52.2301 14.29 52.0301 14.68 51.6401L18.18 48.1401C18.96 47.3601 18.96 46.0901 18.18 45.3101C17.41 44.5301 16.14 44.5301 15.36 45.3101Z" fill="#434244"/>
<path d="M46.78 18.7301C47.29 18.7301 47.8 18.5301 48.19 18.1401L51.69 14.6401C52.47 13.8601 52.47 12.5901 51.69 11.8101C50.91 11.0301 49.64 11.0301 48.86 11.8101L45.36 15.3101C44.58 16.0901 44.58 17.3601 45.36 18.1401C45.75 18.5301 46.27 18.7301 46.78 18.7301Z" fill="#434244"/>
<path d="M48.69 44.8101C47.91 44.0301 46.64 44.0301 45.86 44.8101C45.08 45.5901 45.08 46.8601 45.86 47.6401L49.36 51.1401C49.75 51.5301 50.26 51.7301 50.77 51.7301C51.28 51.7301 51.79 51.5301 52.18 51.1401C52.96 50.3601 52.96 49.0901 52.18 48.3101L48.69 44.8101Z" fill="#434244"/>
<path d="M15.19 11.3101C14.41 10.5301 13.14 10.5301 12.36 11.3101C11.58 12.0901 11.58 13.3601 12.36 14.1401L15.86 17.6401C16.25 18.0301 16.76 18.2301 17.27 18.2301C17.78 18.2301 18.29 18.0301 18.68 17.6401C19.46 16.8601 19.46 15.5901 18.68 14.8101L15.19 11.3101Z" fill="#434244"/>
</svg>
