<svg width="64" height="64" viewBox="0 0 64 64" fill="none" xmlns="http://www.w3.org/2000/svg">
    <g clip-path="url(#clip0)">
        <path d="M18 27H14V31H18V27Z" fill="#434244"/>
        <path d="M22 27H18V31H22V27Z" fill="#434244"/>
        <path d="M22 23H18V27H22V23Z" fill="#434244"/>
        <path d="M26 19H22V23H26V19Z" fill="#434244"/>
        <path d="M30 23H26V19H29.11C29.6 19 30 19.4 30 19.89V23Z" fill="#434244"/>
        <path d="M30 27H26V31H30V27Z" fill="#434244"/>
        <path d="M30 27H26V31H30V27Z" fill="#434244"/>
        <path d="M29.11 35H26V31H30V34.11C30 34.6 29.6 35 29.11 35Z" fill="#434244"/>
        <path d="M26 31H22V35H26V31Z" fill="#434244"/>
        <path d="M18 35H14.89C14.4 35 14 34.6 14 34.11V31H18V35Z" fill="#434244"/>
        <path d="M26 23H22V27H26V23Z" fill="#434244"/>
        <path d="M18 23H14V19.89C14 19.4 14.4 19 14.89 19H18V23Z" fill="#434244"/>
        <path d="M35 46H10C8.9 46 8 45.1 8 44C8 42.9 8.9 42 10 42H35C36.1 42 37 42.9 37 44C37 45.1 36.1 46 35 46Z" fill="#434244"/>
        <path d="M25 54H10C8.9 54 8 53.1 8 52C8 50.9 8.9 50 10 50H25C26.1 50 27 50.9 27 52C27 53.1 26.1 54 25 54Z" fill="#434244"/>
        <path d="M47.56 0H13.44C10.44 0 8 2.44 8 5.44V8H5.44C2.44 8 0 10.44 0 13.44V58.57C0 61.57 2.44 64.01 5.44 64.01H39.57C42.57 64.01 45.01 61.57 45.01 58.57V56H47.57C50.57 56 53.01 53.56 53.01 50.56V5.44C53 2.44 50.56 0 47.56 0ZM41 58.56C41 59.35 40.35 60 39.56 60H5.44C4.65 60 4 59.36 4 58.56V13.44C4 12.65 4.65 12 5.44 12H39.57C40.36 12 41.01 12.65 41.01 13.44V58.56H41ZM49 50.56C49 51.35 48.35 52 47.56 52H45V13.44C45 10.44 42.56 8 39.56 8H12V5.44C12 4.65 12.65 4 13.44 4H47.57C48.35 4 49 4.65 49 5.44V50.56Z" fill="#434244"/>
    </g>
    <defs>
        <clipPath id="clip0">
            <rect width="53" height="64" fill="white"/>
        </clipPath>
    </defs>
</svg>
