<svg width="64" height="64" viewBox="0 0 64 64" fill="none" xmlns="http://www.w3.org/2000/svg">
    <g clip-path="url(#clip0)">
        <path d="M56.45 22.55L51.48 20.61C50.45 20.21 49.29 20.72 48.89 21.75C48.49 22.78 49 23.94 50.03 24.34L52.86 25.44L58 58.25L47.32 55.3L46.45 44.83C46.36 43.73 45.39 42.9 44.29 43C43.19 43.09 42.37 44.06 42.46 45.16L43.33 55.64L31.45 58.92L19.57 55.64L20.44 45.16C20.53 44.06 19.71 43.09 18.61 43C17.5 42.9 16.54 43.73 16.45 44.83L15.59 55.3L4.91 58.25L10.02 25.65L15.88 24.3C17.2 29.86 20.79 37.74 30.26 44.63L31.44 45.49L32.62 44.63C48.52 33.07 47.83 18.73 47.71 17.21C47.66 8.26 40.39 1 31.45 1C22.51 1 15.22 8.26 15.18 17.2C15.15 17.57 15.09 18.69 15.24 20.34L6.5 22.36L0 63.75L16.96 59.07L31.46 63.07L45.96 59.07L62.92 63.75L56.45 22.55ZM19.17 17.49L19.18 17.29C19.18 10.51 24.68 5 31.45 5C38.21 5 43.71 10.51 43.71 17.29L43.72 17.48C43.77 18 44.73 30.12 31.44 40.5C18.16 30.12 19.12 18 19.17 17.49Z" fill="#434244"/>
        <path d="M39.4609 18C39.4609 13.59 35.8709 10 31.4609 10C27.0509 10 23.4609 13.59 23.4609 18C23.4609 22.41 27.0509 26 31.4609 26C35.8709 26 39.4609 22.41 39.4609 18ZM27.4609 18C27.4609 15.79 29.2509 14 31.4609 14C33.6709 14 35.4609 15.79 35.4609 18C35.4609 20.21 33.6709 22 31.4609 22C29.2509 22 27.4609 20.21 27.4609 18Z" fill="#434244"/>
    </g>
    <defs>
        <clipPath id="clip0">
            <rect width="62.91" height="62.75" fill="white" transform="translate(0 1)"/>
        </clipPath>
    </defs>
</svg>
