<svg width="64" height="64" viewBox="0 0 64 64" fill="none" xmlns="http://www.w3.org/2000/svg">
    <path d="M62 14C60.9 14 60 14.9 60 16V34H4V16C4 14.9 3.1 14 2 14C0.9 14 0 14.9 0 16V62C0 63.1 0.9 64 2 64C3.1 64 4 63.1 4 62V38H60V62C60 63.1 60.9 64 62 64C63.1 64 64 63.1 64 62V16C64 14.9 63.1 14 62 14ZM10.5 31H26.5C28.4 31 30 29.4 30 27.5V11.5C30 9.6 28.4 8 26.5 8H10.5C8.6 8 7 9.6 7 11.5V27.5C7 29.4 8.6 31 10.5 31ZM11 12H16V18H21V12H26V27H11V12ZM37.5 31H53.5C55.4 31 57 29.4 57 27.5V11.5C57 9.6 55.4 8 53.5 8H37.5C35.6 8 34 9.6 34 11.5V27.5C34 29.4 35.6 31 37.5 31ZM38 12H43V18H48V12H53V27H38V12ZM26.5 41H10.5C8.6 41 7 42.6 7 44.5V60.5C7 62.4 8.6 64 10.5 64H26.5C28.4 64 30 62.4 30 60.5V44.5C30 42.6 28.4 41 26.5 41ZM26 60H11V45H16V50H21V45H26V60ZM53.5 41H37.5C35.6 41 34 42.6 34 44.5V60.5C34 62.4 35.6 64 37.5 64H53.5C55.4 64 57 62.4 57 60.5V44.5C57 42.6 55.4 41 53.5 41ZM53 60H38V45H43V50H48V45H53V60Z" fill="#434244"/>
</svg>
