<svg width="65" height="64" viewBox="0 0 65 64" fill="none" xmlns="http://www.w3.org/2000/svg">
    <path d="M56.1 47H2C0.9 47 0 47.9 0 49C0 50.1 0.9 51 2 51H56.1C58.3 51 60.1 52.8 60.1 55C60.1 57.2 58.3 59 56.1 59H2C0.9 59 0 59.9 0 61C0 62.1 0.9 63 2 63H56.1C60.5 63 64.1 59.4 64.1 55C64.1 50.6 60.5 47 56.1 47Z" fill="#434244"/>
    <path d="M9 58C10.6569 58 12 56.6569 12 55C12 53.3431 10.6569 52 9 52C7.34315 52 6 53.3431 6 55C6 56.6569 7.34315 58 9 58Z" fill="#434244"/>
    <path d="M29 58C30.6569 58 32 56.6569 32 55C32 53.3431 30.6569 52 29 52C27.3431 52 26 53.3431 26 55C26 56.6569 27.3431 58 29 58Z" fill="#434244"/>
    <path d="M50 58C51.6569 58 53 56.6569 53 55C53 53.3431 51.6569 52 50 52C48.3431 52 47 53.3431 47 55C47 56.6569 48.3431 58 50 58Z" fill="#434244"/>
    <path d="M14.9 43H48.2C50.3 43 52.1 41.3 52.1 39.1V5.9C52 3.7 50.3 2 48.1 2H14.9C12.7 2 11 3.7 11 5.9V39.2C11 41.3 12.7 43 14.9 43ZM15 6H48V39H15V6Z" fill="#434244"/>
    <path d="M34.0001 10.8H32.0001C28.5001 10.8 25.2001 12.3 22.9001 14.9C20.6001 17.5 19.5001 20.9 19.9001 24.4C20.5001 30 25.0001 34.5 30.6001 35.1C31.1001 35.1 31.5001 35.2 32.0001 35.2C35.0001 35.2 37.9001 34.1 40.2001 32.1C42.8001 29.8 44.3001 26.5 44.3001 23V21H34.0001V10.8ZM39.9001 25C39.5001 26.6 38.6001 28 37.4001 29.1C35.6001 30.7 33.4001 31.4 31.0001 31.1C27.2001 30.7 24.2001 27.7 23.8001 23.9C23.5001 21.5 24.3001 19.3 25.8001 17.5C26.9001 16.3 28.3001 15.4 29.9001 15V25H39.9001Z" fill="#434244"/>
</svg>
