<svg width="65" height="64" viewBox="0 0 65 64" fill="none" xmlns="http://www.w3.org/2000/svg">
    <path d="M38.5998 11.7L24.9998 12.6C23.6998 12.7 22.6998 13.5 22.1998 14.7C21.7998 15.9 21.9998 17.2 22.8998 18.1L25.4998 20.7L19.3998 26.8C18.5998 27.6 18.5998 28.8 19.3998 29.6C20.1998 30.4 21.3998 30.4 22.1998 29.6L31.0998 20.7L26.9998 16.6L37.9998 15.7L37.2998 26.5L33.1998 22.4L24.2998 31.3C23.4998 32.1 23.4998 33.3 24.2998 34.1C24.6998 34.5 25.1998 34.7 25.6998 34.7C26.1998 34.7 26.6998 34.5 27.0998 34.1L33.1998 28L35.7998 30.6C36.6998 31.5 37.9998 31.8 39.1998 31.3C40.3998 30.9 41.1998 29.8 41.2998 28.5L41.9998 15C42.0998 14.1 41.6998 13.2 41.0998 12.5C40.3998 11.9 39.5998 11.6 38.5998 11.7Z" fill="#434244"/>
    <path d="M56.1 47H2C0.9 47 0 47.9 0 49C0 50.1 0.9 51 2 51H56.1C58.3 51 60.1 52.8 60.1 55C60.1 57.2 58.3 59 56.1 59H2C0.9 59 0 59.9 0 61C0 62.1 0.9 63 2 63H56.1C60.5 63 64.1 59.4 64.1 55C64.1 50.6 60.5 47 56.1 47Z" fill="#434244"/>
    <path d="M9 58C10.6569 58 12 56.6569 12 55C12 53.3431 10.6569 52 9 52C7.34315 52 6 53.3431 6 55C6 56.6569 7.34315 58 9 58Z" fill="#434244"/>
    <path d="M29 58C30.6569 58 32 56.6569 32 55C32 53.3431 30.6569 52 29 52C27.3431 52 26 53.3431 26 55C26 56.6569 27.3431 58 29 58Z" fill="#434244"/>
    <path d="M50 58C51.6569 58 53 56.6569 53 55C53 53.3431 51.6569 52 50 52C48.3431 52 47 53.3431 47 55C47 56.6569 48.3431 58 50 58Z" fill="#434244"/>
    <path d="M14.9 43H48.2C50.3 43 52.1 41.3 52.1 39.1V5.9C52 3.7 50.3 2 48.1 2H14.9C12.7 2 11 3.7 11 5.9V39.2C11 41.3 12.7 43 14.9 43ZM15 6H48V39H15V6Z" fill="#434244"/>
</svg>
