<svg width="16" height="16" viewBox="0 0 16 16" fill="none" xmlns="http://www.w3.org/2000/svg">
    <path d="M8 0C3.6 0 0 3.6 0 8C0 12.4 3.6 16 8 16C12.4 16 16 12.4 16 8C16 3.6 12.4 0 8 0ZM4.9 13.1C4.9 11.4 6.3 9.9 8 9.9C9.7 9.9 11.1 11.4 11.2 13.1C10.2 13.7 9.2 14 8 14C6.8 14 5.8 13.7 4.9 13.1ZM6.9 6C6.9 5.4 7.4 4.9 8 4.9C8.6 4.9 9.1 5.4 9.1 6C9.1 6.6 8.6 7.1 8 7.1C7.4 7.1 6.9 6.6 6.9 6ZM12.7 11.7C12.3 10.2 11.1 8.9 9.6 8.4C10.4 7.9 10.9 7 10.9 6C10.9 4.4 9.6 3.1 8 3.1C6.4 3.1 5.1 4.4 5.1 6C5.1 7 5.6 7.9 6.4 8.4C4.9 8.9 3.7 10.2 3.3 11.7C2.5 10.7 2 9.4 2 8C2 4.7 4.7 2 8 2C11.3 2 14 4.7 14 8C14 9.4 13.5 10.7 12.7 11.7Z" fill="#434244"/>
</svg>
