<svg width="17" height="16" viewBox="0 0 17 16" fill="none" xmlns="http://www.w3.org/2000/svg">
    <path d="M13.8 4.4C13.5 3.9 12.9 3.8 12.4 4.1C11.9 4.4 11.8 5 12.1 5.5L13.1 6.9H11V2.3C11 1.7 10.8 1.1 10.3 0.7C9.9 0.2 9.3 0 8.7 0H2.3C1.7 0 1.1 0.2 0.7 0.7C0.3 1.2 0 1.7 0 2.3V13.7C0 14.3 0.2 14.9 0.7 15.3C1.1 15.7 1.7 16 2.3 16H8.7C9.3 16 9.9 15.8 10.3 15.3C10.7 14.8 11 14.3 11 13.7V11C11 10.4 10.6 10 10 10C9.4 10 9 10.4 9 11V13.7C9 13.8 8.9 13.9 8.9 13.9C8.9 13.9 8.8 14 8.7 14H2.3C2.2 14 2.1 14 2.1 13.9C2.1 13.9 2 13.8 2 13.7V2.3C2 2.2 2 2.1 2.1 2.1C2.2 2.1 2.2 2 2.3 2H8.7C8.8 2 8.9 2.1 8.9 2.1C9 2.1 9 2.2 9 2.3V7H5C4.4 7 4 7.4 4 8C4 8.6 4.4 9 5 9H13.1L12.1 10.4C11.8 10.9 11.9 11.5 12.4 11.8C12.6 11.9 12.8 12 13 12C13.3 12 13.6 11.8 13.8 11.6L16.2 8L13.8 4.4Z" fill="#52535A"/>
</svg>
