<svg width="64" height="64" viewBox="0 0 64 64" fill="none" xmlns="http://www.w3.org/2000/svg">
    <g clip-path="url(#clip0)">
        <path d="M62 33.5601C60.9 33.5601 60 34.4601 60 35.5601V62.0001C60 63.1001 60.9 64.0001 62 64.0001C63.1 64.0001 64 63.1001 64 62.0001V35.5601C64 34.4501 63.1 33.5601 62 33.5601Z" fill="#434244"/>
        <path d="M29 33.9702H4V16.9502C4 15.8502 3.1 14.9502 2 14.9502C0.9 14.9502 0 15.8502 0 16.9502V62.0002C0 63.1002 0.9 64.0002 2 64.0002C3.1 64.0002 4 63.1002 4 62.0002V37.9702H29C30.1 37.9702 31 37.0702 31 35.9702C31 34.8702 30.1 33.9702 29 33.9702Z" fill="#434244"/>
        <path d="M11.66 30.9599H23C24.1 30.9599 25 30.0599 25 28.9599C25 27.8599 24.1 26.9599 23 26.9599H11.66C11.3 26.9599 11 26.6699 11 26.2999V12.5999C11 12.2399 11.29 11.9399 11.66 11.9399H15.95V16.9499H21V11.9399H23C24.1 11.9399 25 11.0399 25 9.93994C25 8.83994 24.1 7.93994 23 7.93994H11.66C9.09 7.93994 7 10.0299 7 12.5999V26.3099C7 28.8699 9.09 30.9599 11.66 30.9599Z" fill="#434244"/>
        <path d="M26.5 40.9702H10.5C8.57 40.9702 7 42.5402 7 44.4702V60.5002C7 62.4302 8.57 64.0002 10.5 64.0002H26.5C28.43 64.0002 30 62.4302 30 60.5002V44.4802C30 42.5502 28.43 40.9702 26.5 40.9702ZM26 60.0002H11V44.9802H16V49.9902H21V44.9802H26V60.0002Z" fill="#434244"/>
        <path d="M53.5 40.9702H37.5C35.57 40.9702 34 42.5402 34 44.4702V60.5002C34 62.4302 35.57 64.0002 37.5 64.0002H53.5C55.43 64.0002 57 62.4302 57 60.5002V44.4802C57 42.5502 55.43 40.9702 53.5 40.9702ZM53 60.0002H38V44.9802H43V50.9902H48V44.9802H53V60.0002Z" fill="#434244"/>
        <path d="M46 0C36.08 0 28 8.07 28 18C28 27.93 36.08 36 46 36C55.92 36 64 27.93 64 18C64 8.07 55.92 0 46 0ZM46 32C38.28 32 32 25.72 32 18C32 10.28 38.28 4 46 4C53.72 4 60 10.28 60 18C60 25.72 53.72 32 46 32Z" fill="#434244"/>
        <path d="M53.78 10.2198C53 9.43977 51.73 9.43977 50.95 10.2198L46 15.1698L41.05 10.2198C40.27 9.43977 39 9.43977 38.22 10.2198C37.44 10.9998 37.44 12.2698 38.22 13.0498L43.17 17.9998L38.22 22.9498C37.44 23.7298 37.44 24.9998 38.22 25.7798C38.61 26.1698 39.12 26.3698 39.63 26.3698C40.14 26.3698 40.65 26.1698 41.04 25.7798L46 20.8298L50.95 25.7798C51.34 26.1698 51.85 26.3698 52.36 26.3698C52.87 26.3698 53.38 26.1698 53.77 25.7798C54.55 24.9998 54.55 23.7298 53.77 22.9498L48.83 17.9998L53.78 13.0498C54.56 12.2698 54.56 10.9998 53.78 10.2198Z" fill="#434244"/>
    </g>
    <defs>
        <clipPath id="clip0">
            <rect width="64" height="64" fill="white"/>
        </clipPath>
    </defs>
</svg>
